<?xml version="1.0" encoding="UTF-8"?>
<svg xmlns="http://www.w3.org/2000/svg" xmlns:xlink="http://www.w3.org/1999/xlink"
     width="500" height="300" viewBox="0 0 500 300">
<defs>
<clipPath id="d0">
<path d="M250.0,150.0 L250.0,-75.0 L382.25168176580644,-32.028823734363186 L463.98771616640954,80.47117626563684 L250.0,150.0 Z" stroke="black" stroke-width="2" fill="#3CB07D" />
</clipPath>
<clipPath id="d1">
<path d="M250.0,150.0 L463.98771616640954,80.47117626563684 L463.98771616640954,219.52882373436316 L382.25168176580644,332.0288237343632 L250.0,150.0 Z" stroke="black" stroke-width="2" fill="#7BC2E0" />
</clipPath>
<clipPath id="d2">
<path d="M250.0,150.0 L382.25168176580644,332.0288237343632 L250.0,375.0 L117.74831823419356,332.0288237343632 L250.0,150.0 Z" stroke="black" stroke-width="2" fill="#E8E8E8" />
</clipPath>
<clipPath id="d3">
<path d="M250.0,150.0 L117.74831823419356,332.0288237343632 L36.01228383359046,219.5288237343632 L36.01228383359043,80.47117626563686 L250.0,150.0 Z" stroke="black" stroke-width="2" fill="#EEDE77" />
</clipPath>
<clipPath id="d4">
<path d="M250.0,150.0 L36.01228383359043,80.47117626563686 L117.74831823419353,-32.02882373436316 L249.99999999999997,-75.0 L250.0,150.0 Z" stroke="black" stroke-width="2" fill="#CF7280" />
</clipPath>
</defs>
<rect x="0" y="0" width="500" height="301" fill="#FDD70A" />
<circle cx="250.0" cy="150.0" r="75.0" stroke="#595959" fill="none" stroke-width="48.0" />
<circle cx="250.0" cy="150.0" r="75.0" fill="none" stroke-width="24.0" stroke="#3CB07D" fill-opacity="1.0" clip-path="url(#d0)" />
<circle cx="250.0" cy="150.0" r="75.0" fill="none" stroke-width="24.0" stroke="#7BC2E0" fill-opacity="1.0" clip-path="url(#d1)" />
<circle cx="250.0" cy="150.0" r="75.0" fill="none" stroke-width="24.0" stroke="#E8E8E8" fill-opacity="1.0" clip-path="url(#d2)" />
<circle cx="250.0" cy="150.0" r="75.0" fill="none" stroke-width="24.0" stroke="#EEDE77" fill-opacity="1.0" clip-path="url(#d3)" />
<circle cx="250.0" cy="150.0" r="75.0" fill="none" stroke-width="24.0" stroke="#CF7280" fill-opacity="1.0" clip-path="url(#d4)" />
</svg>