<?xml version="1.0" encoding="UTF-8"?>
<svg xmlns="http://www.w3.org/2000/svg" xmlns:xlink="http://www.w3.org/1999/xlink"
     width="500" height="300" viewBox="0 0 500 300">
<defs>
</defs>
<rect x="0" y="0" width="500" height="301" fill="black" />
<rect x="333.3333333333333" y="0" width="28" height="300" fill="#fae7d0" />
<rect x="361.1111111111111" y="0" width="28" height="300" fill="#e8cda8" />
<rect x="388.88888888888886" y="0" width="28" height="300" fill="#dfc183" />
<rect x="416.66666666666663" y="0" width="28" height="300" fill="#aa724b" />
<rect x="444.4444444444444" y="0" width="28" height="300" fill="#7b4b2a" />
<rect x="472.2222222222222" y="0" width="28" height="300" fill="#4b3728" />
<path d="M0,284.5679012345679 L333.33333333333337,16.975308641975303 L333.33333333333337,0.0 L0,267.5925925925926" fill="#fae7d0" />
<path d="M0,269.1358024691358 L333.33333333333337,1.5432098765432094 L333.33333333333337,-15.432098765432094 L0,252.16049382716048" fill="#e8cda8" />
<path d="M0,253.7037037037037 L333.33333333333337,-13.888888888888886 L333.33333333333337,-30.86419753086419 L0,236.7283950617284" fill="#dfc183" />
<path d="M0,238.27160493827162 L333.33333333333337,-29.32098765432098 L333.33333333333337,-46.29629629629628 L0,221.2962962962963" fill="#aa724b" />
<path d="M0,222.83950617283952 L333.33333333333337,-44.753086419753075 L333.33333333333337,-61.72839506172838 L0,205.8641975308642" fill="#7b4b2a" />
<path d="M0,207.40740740740742 L333.33333333333337,-60.18518518518517 L333.33333333333337,-77.16049382716048 L0,190.43209876543213" fill="#4b3728" />
<path d="M262.3223304703363,107.32233047033631 L278.04456918699714,112.65389574256078 L291.34976249348864,102.72483689529079 L291.1375815523546,119.32511875325567 L304.6922085148784,128.91086162600575 L288.83883476483186,133.83883476483183 L283.9108616260058,149.69220851487844 L274.32511875325565,136.1375815523546 L257.7248368952908,136.34976249348867 L267.6538957425608,123.04456918699711 Z" fill="#ff0000" stroke="none" stroke-width="0" />
</svg>