<?xml version="1.0" encoding="UTF-8"?>
<svg xmlns="http://www.w3.org/2000/svg" xmlns:xlink="http://www.w3.org/1999/xlink"
     width="500" height="300" viewBox="0 0 500 300">
<defs>
</defs>
<rect x="0" y="0" width="500" height="301" fill="white" />
<circle cx="180.0" cy="150.0" r="93.33333333333333" stroke="#2cad74" stroke-width="11.666666666666666" fill="none" />
<circle cx="180.0" cy="150.0" r="81.66666666666666" stroke="white" stroke-width="11.666666666666666" fill="none" />
<circle cx="180.0" cy="150.0" r="70.0" stroke="#ffc65b" stroke-width="11.666666666666666" fill="none" />
<circle cx="180.0" cy="150.0" r="58.33333333333333" stroke="white" stroke-width="11.666666666666666" fill="none" />
<circle cx="180.0" cy="150.0" r="46.666666666666664" stroke="#e43546" stroke-width="11.666666666666666" fill="none" />
<circle cx="320.0" cy="150.0" r="93.33333333333333" stroke="#e43546" stroke-width="11.666666666666666" fill="none" />
<circle cx="320.0" cy="150.0" r="81.66666666666666" stroke="white" stroke-width="11.666666666666666" fill="none" />
<circle cx="320.0" cy="150.0" r="70.0" stroke="#ffc65b" stroke-width="11.666666666666666" fill="none" />
<circle cx="320.0" cy="150.0" r="58.33333333333333" stroke="white" stroke-width="11.666666666666666" fill="none" />
<circle cx="320.0" cy="150.0" r="46.666666666666664" stroke="#2cad74" stroke-width="11.666666666666666" fill="none" />
<path d="M245.49357583939707,67.92935041216536 C289.63080575835596,110.09764994533865,278.4196955378762,171.18622332117886,300.63619180411115,179.15549574527637 C278.4196955378762,171.18622332117886,289.63080575835596,110.09764994533865,245.49357583939707,67.92935041216536 Z" stroke="white" stroke-width="11.666666666666666" fill="white" stroke-linecap="round" />
<path d="M238.21651185724184,77.04831147748033 C278.66772518252037,114.08788495080478,268.0246194223452,176.48277915147355,294.1815890721482,188.87399432703515 C268.0246194223452,176.48277915147355,278.66772518252037,114.08788495080478,238.21651185724184,77.04831147748033 Z" stroke="#2cad74" stroke-width="11.666666666666666" fill="#2cad74" stroke-linecap="round" />
<path d="M230.9394478750866,86.16727254279529 C267.7046446066848,118.07811995627092,257.62954330681424,181.77933498176827,287.72698634018525,198.59249290879393 C257.62954330681424,181.77933498176827,267.7046446066848,118.07811995627092,230.9394478750866,86.16727254279529 Z" stroke="white" stroke-width="11.666666666666666" fill="white" stroke-linecap="round" />
<path d="M223.6623838929314,95.28623360811024 C256.7415640308492,122.06835496173706,247.23446719128327,187.075890812063,281.2723836082223,208.3109914905527 C247.23446719128327,187.075890812063,256.7415640308492,122.06835496173706,223.6623838929314,95.28623360811024 Z" stroke="#ffc65b" stroke-width="11.666666666666666" fill="#ffc65b" stroke-linecap="round" />
<path d="M216.38531991077616,104.4051946734252 C245.7784834550136,126.05858996720319,236.83939107575236,192.37244664235772,274.81778087625935,218.0294900723115 C236.83939107575236,192.37244664235772,245.7784834550136,126.05858996720319,216.38531991077616,104.4051946734252 Z" stroke="white" stroke-width="11.666666666666666" fill="white" stroke-linecap="round" />
<path d="M209.10825592862093,113.52415573874016 C234.81540287917798,130.04882497266934,226.4443149602214,197.66900247265244,268.3631781442964,227.7479886540703 C226.4443149602214,197.66900247265244,234.81540287917798,130.04882497266934,209.10825592862093,113.52415573874016 Z" stroke="#e43546" stroke-width="11.666666666666666" fill="#e43546" stroke-linecap="round" />
<path d="M201.8311919464657,122.64311680405513 C223.8523223033424,134.03905997813547,216.04923884469042,202.96555830294713,261.90857541233345,237.46648723582905 C216.04923884469042,202.96555830294713,223.8523223033424,134.03905997813547,201.8311919464657,122.64311680405513 Z" stroke="white" stroke-width="11.666666666666666" fill="white" stroke-linecap="round" />
</svg>