<?xml version="1.0" encoding="UTF-8"?>
<svg xmlns="http://www.w3.org/2000/svg" xmlns:xlink="http://www.w3.org/1999/xlink"
     width="500" height="300" viewBox="0 0 500 300">
<defs>
</defs>
<path d="M-500.0,0.0 L0.0,300.0 L47.0,300.0 L-453.0,0.0 L-453.0,0.0 Z" fill="#CF7280" />
<path d="M-459.0,0.0 L41.0,300.0 L88.0,300.0 L-412.0,0.0 L-412.0,0.0 Z" fill="#EEDE77" />
<path d="M-417.0,0.0 L83.0,300.0 L130.0,300.0 L-370.0,0.0 L-370.0,0.0 Z" fill="#E8E8E8" />
<path d="M-375.0,0.0 L125.0,300.0 L172.0,300.0 L-328.0,0.0 L-328.0,0.0 Z" fill="#7BC2E0" />
<path d="M-334.0,0.0 L166.0,300.0 L213.0,300.0 L-287.0,0.0 L-287.0,0.0 Z" fill="#3CB07D" />
<path d="M-292.0,0.0 L208.0,300.0 L255.0,300.0 L-245.0,0.0 L-245.0,0.0 Z" fill="#595959" />
<path d="M-250.0,0.0 L250.0,300.0 L297.0,300.0 L-203.0,0.0 L-203.0,0.0 Z" fill="#595959" />
<path d="M-209.0,0.0 L291.0,300.0 L338.0,300.0 L-162.0,0.0 L-162.0,0.0 Z" fill="#595959" />
<path d="M-167.0,0.0 L333.0,300.0 L380.0,300.0 L-120.0,0.0 L-120.0,0.0 Z" fill="#595959" />
<path d="M-125.0,0.0 L375.0,300.0 L422.0,300.0 L-78.0,0.0 L-78.0,0.0 Z" fill="#595959" />
<path d="M-84.0,0.0 L416.0,300.0 L463.0,300.0 L-37.0,0.0 L-37.0,0.0 Z" fill="#595959" />
<path d="M-42.0,0.0 L458.0,300.0 L505.0,300.0 L5.0,0.0 L5.0,0.0 Z" fill="#595959" />
<path d="M0.0,0.0 L500.0,300.0 L547.0,300.0 L47.0,0.0 L47.0,0.0 Z" fill="#595959" />
<path d="M41.0,0.0 L541.0,300.0 L588.0,300.0 L88.0,0.0 L88.0,0.0 Z" fill="#595959" />
<path d="M83.0,0.0 L583.0,300.0 L630.0,300.0 L130.0,0.0 L130.0,0.0 Z" fill="#595959" />
<path d="M125.0,0.0 L625.0,300.0 L672.0,300.0 L172.0,0.0 L172.0,0.0 Z" fill="#595959" />
<path d="M166.0,0.0 L666.0,300.0 L713.0,300.0 L213.0,0.0 L213.0,0.0 Z" fill="#595959" />
<path d="M208.0,0.0 L708.0,300.0 L755.0,300.0 L255.0,0.0 L255.0,0.0 Z" fill="#595959" />
<path d="M250.0,0.0 L750.0,300.0 L797.0,300.0 L297.0,0.0 L297.0,0.0 Z" fill="#595959" />
<path d="M291.0,0.0 L791.0,300.0 L838.0,300.0 L338.0,0.0 L338.0,0.0 Z" fill="#CF7280" />
<path d="M333.0,0.0 L833.0,300.0 L880.0,300.0 L380.0,0.0 L380.0,0.0 Z" fill="#EEDE77" />
<path d="M375.0,0.0 L875.0,300.0 L922.0,300.0 L422.0,0.0 L422.0,0.0 Z" fill="#E8E8E8" />
<path d="M416.0,0.0 L916.0,300.0 L963.0,300.0 L463.0,0.0 L463.0,0.0 Z" fill="#7BC2E0" />
<path d="M458.0,0.0 L958.0,300.0 L1005.0,300.0 L505.0,0.0 L505.0,0.0 Z" fill="#3CB07D" />
<path d="M258.8888888888889,167.77777777777777 L138.8888888888889,167.77777777777777 Q136.72884818672082,123.31515914544084,173.7728396534469,96.35693225705118 L258.8888888888889,167.77777777777777 Z" stroke="#595959" fill="#cf7280" stroke-width="0.0" id="d0" />
<use xlink:href="#d0" />
<use xlink:href="#d0" />
<use xlink:href="#d0" />
<use xlink:href="#d0" />
<path d="M258.8888888888889,167.77777777777777 L173.7728396534469,96.35693225705118 Q198.33333333333337,62.89247887499576,241.13818628293603,67.1085408031965 L258.8888888888889,167.77777777777777 Z" stroke="#595959" fill="#DFA87C" stroke-width="0.0" id="d1" />
<use xlink:href="#d1" />
<use xlink:href="#d1" />
<use xlink:href="#d1" />
<use xlink:href="#d1" />
<path d="M258.8888888888889,167.77777777777777 L241.13818628293603,67.1085408031965 Q278.3760732715111,57.26046327307442,305.5555555555556,86.94874009123015 L258.8888888888889,167.77777777777777 Z" stroke="#595959" fill="#eede77" stroke-width="0.0" id="d2" />
<use xlink:href="#d2" />
<use xlink:href="#d2" />
<use xlink:href="#d2" />
<use xlink:href="#d2" />
<path d="M258.8888888888889,167.77777777777777 L305.5555555555556,86.94874009123015 Q338.04681467784997,101.35639144350202,338.240710199699,138.8960767858324 L258.8888888888889,167.77777777777777 Z" stroke="#595959" fill="#95C77A" stroke-width="0.0" id="d3" />
<use xlink:href="#d3" />
<use xlink:href="#d3" />
<use xlink:href="#d3" />
<use xlink:href="#d3" />
<path d="M258.8888888888889,167.77777777777777 L338.240710199699,138.8960767858324 Q353.33333333333337,167.77777777777777,329.8878869038242,193.6192997179394 L258.8888888888889,167.77777777777777 Z" stroke="#595959" fill="#3bb07d" stroke-width="0.0" id="d4" />
<use xlink:href="#d4" />
<use xlink:href="#d4" />
<use xlink:href="#d4" />
<use xlink:href="#d4" />
<path d="M258.8888888888889,167.77777777777777 L329.8878869038242,193.6192997179394 Q324.4282468001793,222.77182882873726,292.22222222222223,225.51280469674035 L258.8888888888889,167.77777777777777 Z" stroke="#595959" fill="#5BB9AF" stroke-width="0.0" id="d5" />
<use xlink:href="#d5" />
<use xlink:href="#d5" />
<use xlink:href="#d5" />
<use xlink:href="#d5" />
<path d="M258.8888888888889,167.77777777777777 L292.22222222222223,225.51280469674035 Q272.20191584335356,243.27970550871373,248.85588306813293,224.67778128514982 L258.8888888888889,167.77777777777777 Z" stroke="#595959" fill="#7bc2e0" stroke-width="0.0" id="d6" />
<use xlink:href="#d6" />
<use xlink:href="#d6" />
<use xlink:href="#d6" />
<use xlink:href="#d6" />
<path d="M258.8888888888889,167.77777777777777 L248.85588306813293,224.67778128514982 Q225.0,226.47505514538975,221.43782722529443,199.2029498068975 L258.8888888888889,167.77777777777777 Z" stroke="#595959" fill="#97A7C0" stroke-width="0.0" id="d7" />
<use xlink:href="#d7" />
<use xlink:href="#d7" />
<use xlink:href="#d7" />
<use xlink:href="#d7" />
<path d="M258.8888888888889,167.77777777777777 L221.43782722529443,199.2029498068975 Q203.55143455371874,187.91896399584493,218.88888888888889,167.77777777777777 L258.8888888888889,167.77777777777777 Z" stroke="#595959" fill="#B38DA0" stroke-width="0.0" id="d8" />
<use xlink:href="#d8" />
<use xlink:href="#d8" />
<use xlink:href="#d8" />
<use xlink:href="#d8" />
</svg>