<?xml version="1.0" encoding="UTF-8"?>
<svg xmlns="http://www.w3.org/2000/svg" xmlns:xlink="http://www.w3.org/1999/xlink"
     width="500" height="300" viewBox="0 0 500 300">
<defs>
</defs>
<rect x="0" y="0" width="500" height="301" fill="#595959" />
<path d="M261.1111111111111,172.22222222222223 L111.11111111111109,172.22222222222223 Q105.47452079344501,115.57513598390835,154.71604956680858,82.946165321314 L261.1111111111111,172.22222222222223 Z" stroke="#595959" fill="#cf7280" stroke-width="0.0" id="d0" />
<use xlink:href="#d0" />
<use xlink:href="#d0" />
<use xlink:href="#d0" />
<use xlink:href="#d0" />
<path d="M261.1111111111111,172.22222222222223 L154.71604956680858,82.946165321314 Q183.85416666666666,38.40926920691834,238.92273285367,46.385676003995655 L261.1111111111111,172.22222222222223 Z" stroke="#595959" fill="#DFA87C" stroke-width="0.0" id="d1" />
<use xlink:href="#d1" />
<use xlink:href="#d1" />
<use xlink:href="#d1" />
<use xlink:href="#d1" />
<path d="M261.1111111111111,172.22222222222223 L238.92273285367,46.385676003995655 Q286.01274214459795,30.998054863179902,319.4444444444444,71.18592511403772 L261.1111111111111,172.22222222222223 Z" stroke="#595959" fill="#eede77" stroke-width="0.0" id="d2" />
<use xlink:href="#d2" />
<use xlink:href="#d2" />
<use xlink:href="#d2" />
<use xlink:href="#d2" />
<path d="M261.1111111111111,172.22222222222223 L319.4444444444444,71.18592511403772 Q362.4524072320592,87.18677802410711,360.3008877496236,136.1200959822905 L261.1111111111111,172.22222222222223 Z" stroke="#595959" fill="#95C77A" stroke-width="0.0" id="d3" />
<use xlink:href="#d3" />
<use xlink:href="#d3" />
<use xlink:href="#d3" />
<use xlink:href="#d3" />
<path d="M261.1111111111111,172.22222222222223 L360.3008877496236,136.1200959822905 Q382.29166666666663,172.2222222222222,349.8598586297802,204.52412464742426 L261.1111111111111,172.22222222222223 Z" stroke="#595959" fill="#3bb07d" stroke-width="0.0" id="d4" />
<use xlink:href="#d4" />
<use xlink:href="#d4" />
<use xlink:href="#d4" />
<use xlink:href="#d4" />
<path d="M261.1111111111111,172.22222222222223 L349.8598586297802,204.52412464742426 Q345.4291973849708,242.97349731619198,302.7777777777777,244.39100587092543 L261.1111111111111,172.22222222222223 Z" stroke="#595959" fill="#5BB9AF" stroke-width="0.0" id="d5" />
<use xlink:href="#d5" />
<use xlink:href="#d5" />
<use xlink:href="#d5" />
<use xlink:href="#d5" />
<path d="M261.1111111111111,172.22222222222223 L302.7777777777777,244.39100587092543 Q278.29504535940106,269.67715611405526,248.5698538351661,243.34722660643723 L261.1111111111111,172.22222222222223 Z" stroke="#595959" fill="#7bc2e0" stroke-width="0.0" id="d6" />
<use xlink:href="#d6" />
<use xlink:href="#d6" />
<use xlink:href="#d6" />
<use xlink:href="#d6" />
<path d="M261.1111111111111,172.22222222222223 L248.5698538351661,243.34722660643723 Q217.18749999999997,248.30014831856352,214.297284031618,211.50368725862185 L261.1111111111111,172.22222222222223 Z" stroke="#595959" fill="#97A7C0" stroke-width="0.0" id="d7" />
<use xlink:href="#d7" />
<use xlink:href="#d7" />
<use xlink:href="#d7" />
<use xlink:href="#d7" />
<path d="M261.1111111111111,172.22222222222223 L214.297284031618,211.50368725862185 Q189.00275375219246,198.46751794269886,211.11111111111111,172.22222222222223 L261.1111111111111,172.22222222222223 Z" stroke="#595959" fill="#B38DA0" stroke-width="0.0" id="d8" />
<use xlink:href="#d8" />
<use xlink:href="#d8" />
<use xlink:href="#d8" />
<use xlink:href="#d8" />
</svg>