<?xml version="1.0" encoding="UTF-8"?>
<svg xmlns="http://www.w3.org/2000/svg" xmlns:xlink="http://www.w3.org/1999/xlink"
     width="500" height="300" viewBox="0 0 500 300">
<defs>
</defs>
<rect x="0" y="0" width="500" height="51" fill="#c94948" />
<rect x="0" y="50.0" width="500" height="51" fill="#da7756" />
<rect x="0" y="100.0" width="500" height="51" fill="#dab558" />
<rect x="0" y="150.0" width="500" height="51" fill="#6ea35d" />
<rect x="0" y="200.0" width="500" height="51" fill="#2e7472" />
<rect x="0" y="250.0" width="500" height="51" fill="#232728" />
<path d="M278.6363636363636,163.0909090909091 C291.3636363636364,179.45454545454547,310.45454545454544,195.8181818181818,329.54545454545456,195.8181818181818 C370.9090909090909,195.8181818181818,390.0,146.72727272727272,361.3636363636364,117.27272727272728 C355.0,110.72727272727272,342.27272727272725,104.18181818181819,329.54545454545456,104.18181818181819 C300.9090909090909,104.18181818181819,265.90909090909093,150.0,246.8181818181818,174.54545454545456 C227.72727272727272,195.8181818181818,202.27272727272725,222.0,170.45454545454544,222.0 C110.0,222.0,78.18181818181819,143.45454545454547,119.54545454545455,100.9090909090909 C132.27272727272725,87.81818181818181,151.36363636363637,78.0,170.45454545454544,78.0 C195.9090909090909,78.0,221.36363636363637,97.63636363636363,237.27272727272728,117.27272727272728 L221.36363636363637,136.9090909090909 C208.63636363636365,120.54545454545455,189.54545454545453,104.18181818181819,170.45454545454544,104.18181818181819 C129.0909090909091,104.18181818181819,110.0,153.27272727272728,138.63636363636363,182.72727272727272 C145.0,189.27272727272728,157.72727272727272,195.8181818181818,170.45454545454544,195.8181818181818 C202.27272727272725,195.8181818181818,234.0909090909091,150.0,256.3636363636364,125.45454545454545 C275.45454545454544,104.18181818181819,300.9090909090909,78.0,329.54545454545456,78.0 C390.0,78.0,421.8181818181818,156.54545454545453,380.45454545454544,199.0909090909091 C367.7272727272727,212.1818181818182,348.6363636363636,222.0,329.54545454545456,222.0 C304.09090909090907,222.0,278.6363636363636,202.36363636363637,262.7272727272727,182.72727272727272 L278.6363636363636,163.0909090909091 Z" stroke="none" stroke-width="3.0" fill="black" transform="translate(0, 300) scale(1,-1)" />
</svg>