<?xml version="1.0" encoding="UTF-8"?>
<svg xmlns="http://www.w3.org/2000/svg" xmlns:xlink="http://www.w3.org/1999/xlink"
     width="500" height="300" viewBox="0 0 500 300">
<defs>
</defs>
<rect x="0" y="0" width="500" height="301" fill="white" />
<circle cx="180.0" cy="150.0" r="93.33333333333333" stroke="#2cad74" stroke-width="11.666666666666666" fill="none" />
<circle cx="180.0" cy="150.0" r="81.66666666666666" stroke="white" stroke-width="11.666666666666666" fill="none" />
<circle cx="180.0" cy="150.0" r="70.0" stroke="#ffc65b" stroke-width="11.666666666666666" fill="none" />
<circle cx="180.0" cy="150.0" r="58.33333333333333" stroke="white" stroke-width="11.666666666666666" fill="none" />
<circle cx="180.0" cy="150.0" r="46.666666666666664" stroke="#e43546" stroke-width="11.666666666666666" fill="none" />
<circle cx="320.0" cy="150.0" r="93.33333333333333" stroke="#e43546" stroke-width="11.666666666666666" fill="none" />
<circle cx="320.0" cy="150.0" r="81.66666666666666" stroke="white" stroke-width="11.666666666666666" fill="none" />
<circle cx="320.0" cy="150.0" r="70.0" stroke="#ffc65b" stroke-width="11.666666666666666" fill="none" />
<circle cx="320.0" cy="150.0" r="58.33333333333333" stroke="white" stroke-width="11.666666666666666" fill="none" />
<circle cx="320.0" cy="150.0" r="46.666666666666664" stroke="#2cad74" stroke-width="11.666666666666666" fill="none" />
<path d="M245.49357583939707,67.92935041216536 C291.56888819568746,115.88996778234738,275.372444721725,163.64401288706105,300.63619180411115,179.15549574527637" stroke="white" stroke-width="11.666666666666666" fill="white" stroke-linecap="round" />
<path d="M238.21651185724184,77.04831147748033 C280.41199937611873,119.30097100411264,264.21555590215627,167.0550161088263,294.1815890721482,188.87399432703515" stroke="#2cad74" stroke-width="11.666666666666666" fill="#2cad74" stroke-linecap="round" />
<path d="M230.9394478750866,86.16727254279529 C269.25511055655,122.7119742258779,253.0586670825875,170.46601933059156,287.72698634018525,198.59249290879393" stroke="white" stroke-width="11.666666666666666" fill="white" stroke-linecap="round" />
<path d="M223.6623838929314,95.28623360811024 C258.0982217369812,126.12297744764317,241.90177826301874,173.87702255235683,281.2723836082223,208.3109914905527" stroke="#ffc65b" stroke-width="11.666666666666666" fill="#ffc65b" stroke-linecap="round" />
<path d="M216.38531991077616,104.4051946734252 C246.94133291741247,129.53398066940844,230.74488944345,177.28802577412208,274.81778087625935,218.0294900723115" stroke="white" stroke-width="11.666666666666666" fill="white" stroke-linecap="round" />
<path d="M209.10825592862093,113.52415573874016 C235.78444409784373,132.94498389117368,219.58800062388127,180.69902899588735,268.3631781442964,227.7479886540703" stroke="#e43546" stroke-width="11.666666666666666" fill="#e43546" stroke-linecap="round" />
<path d="M201.8311919464657,122.64311680405513 C224.627555278275,136.35598711293895,208.43111180431254,184.1100322176526,261.90857541233345,237.46648723582905" stroke="white" stroke-width="11.666666666666666" fill="white" stroke-linecap="round" />
</svg>