<?xml version="1.0" encoding="UTF-8"?>
<svg xmlns="http://www.w3.org/2000/svg" xmlns:xlink="http://www.w3.org/1999/xlink"
     width="500" height="300" viewBox="0 0 500 300">
<defs>
</defs>
<path d="M-500.0,0.0 L0.0,300.0 L47.0,300.0 L-453.0,0.0 L-453.0,0.0 Z" fill="#CF7280" />
<path d="M-459.0,0.0 L41.0,300.0 L88.0,300.0 L-412.0,0.0 L-412.0,0.0 Z" fill="#EEDE77" />
<path d="M-417.0,0.0 L83.0,300.0 L130.0,300.0 L-370.0,0.0 L-370.0,0.0 Z" fill="#E8E8E8" />
<path d="M-375.0,0.0 L125.0,300.0 L172.0,300.0 L-328.0,0.0 L-328.0,0.0 Z" fill="#7BC2E0" />
<path d="M-334.0,0.0 L166.0,300.0 L213.0,300.0 L-287.0,0.0 L-287.0,0.0 Z" fill="#3CB07D" />
<path d="M-292.0,0.0 L208.0,300.0 L255.0,300.0 L-245.0,0.0 L-245.0,0.0 Z" fill="#595959" />
<path d="M-250.0,0.0 L250.0,300.0 L297.0,300.0 L-203.0,0.0 L-203.0,0.0 Z" fill="#595959" />
<path d="M-209.0,0.0 L291.0,300.0 L338.0,300.0 L-162.0,0.0 L-162.0,0.0 Z" fill="#595959" />
<path d="M-167.0,0.0 L333.0,300.0 L380.0,300.0 L-120.0,0.0 L-120.0,0.0 Z" fill="#595959" />
<path d="M-125.0,0.0 L375.0,300.0 L422.0,300.0 L-78.0,0.0 L-78.0,0.0 Z" fill="#595959" />
<path d="M-84.0,0.0 L416.0,300.0 L463.0,300.0 L-37.0,0.0 L-37.0,0.0 Z" fill="#595959" />
<path d="M-42.0,0.0 L458.0,300.0 L505.0,300.0 L5.0,0.0 L5.0,0.0 Z" fill="#595959" />
<path d="M0.0,0.0 L500.0,300.0 L547.0,300.0 L47.0,0.0 L47.0,0.0 Z" fill="#595959" />
<path d="M41.0,0.0 L541.0,300.0 L588.0,300.0 L88.0,0.0 L88.0,0.0 Z" fill="#595959" />
<path d="M83.0,0.0 L583.0,300.0 L630.0,300.0 L130.0,0.0 L130.0,0.0 Z" fill="#595959" />
<path d="M125.0,0.0 L625.0,300.0 L672.0,300.0 L172.0,0.0 L172.0,0.0 Z" fill="#595959" />
<path d="M166.0,0.0 L666.0,300.0 L713.0,300.0 L213.0,0.0 L213.0,0.0 Z" fill="#595959" />
<path d="M208.0,0.0 L708.0,300.0 L755.0,300.0 L255.0,0.0 L255.0,0.0 Z" fill="#595959" />
<path d="M250.0,0.0 L750.0,300.0 L797.0,300.0 L297.0,0.0 L297.0,0.0 Z" fill="#595959" />
<path d="M291.0,0.0 L791.0,300.0 L838.0,300.0 L338.0,0.0 L338.0,0.0 Z" fill="#CF7280" />
<path d="M333.0,0.0 L833.0,300.0 L880.0,300.0 L380.0,0.0 L380.0,0.0 Z" fill="#EEDE77" />
<path d="M375.0,0.0 L875.0,300.0 L922.0,300.0 L422.0,0.0 L422.0,0.0 Z" fill="#E8E8E8" />
<path d="M416.0,0.0 L916.0,300.0 L963.0,300.0 L463.0,0.0 L463.0,0.0 Z" fill="#7BC2E0" />
<path d="M458.0,0.0 L958.0,300.0 L1005.0,300.0 L505.0,0.0 L505.0,0.0 Z" fill="#3CB07D" />
<path d="M258.8888888888889,167.77777777777777 L258.8888888888889,47.77777777777777 Q214.426270256552,45.617737075609696,187.46804336816234,82.66172854233577 L258.8888888888889,167.77777777777777 Z" stroke="#595959" fill="#cf7280" stroke-width="0.0" id="d0" />
<use xlink:href="#d0" />
<use xlink:href="#d0" />
<use xlink:href="#d0" />
<use xlink:href="#d0" />
<path d="M258.8888888888889,167.77777777777777 L187.46804336816234,82.66172854233577 Q154.0035899861069,107.22222222222223,158.21965191430763,150.0270751718249 L258.8888888888889,167.77777777777777 Z" stroke="#595959" fill="#DFA87C" stroke-width="0.0" id="d1" />
<use xlink:href="#d1" />
<use xlink:href="#d1" />
<use xlink:href="#d1" />
<use xlink:href="#d1" />
<path d="M258.8888888888889,167.77777777777777 L158.21965191430763,150.0270751718249 Q148.37157438418558,187.26496216039996,178.0598512023413,214.44444444444443 L258.8888888888889,167.77777777777777 Z" stroke="#595959" fill="#eede77" stroke-width="0.0" id="d2" />
<use xlink:href="#d2" />
<use xlink:href="#d2" />
<use xlink:href="#d2" />
<use xlink:href="#d2" />
<path d="M258.8888888888889,167.77777777777777 L178.0598512023413,214.44444444444443 Q192.46750255461316,246.93570356673882,230.00718789694355,247.12959908858784 L258.8888888888889,167.77777777777777 Z" stroke="#595959" fill="#95C77A" stroke-width="0.0" id="d3" />
<use xlink:href="#d3" />
<use xlink:href="#d3" />
<use xlink:href="#d3" />
<use xlink:href="#d3" />
<path d="M258.8888888888889,167.77777777777777 L230.00718789694355,247.12959908858784 Q258.8888888888889,262.22222222222223,284.7304108290505,238.7767757927131 L258.8888888888889,167.77777777777777 Z" stroke="#595959" fill="#3bb07d" stroke-width="0.0" id="d4" />
<use xlink:href="#d4" />
<use xlink:href="#d4" />
<use xlink:href="#d4" />
<use xlink:href="#d4" />
<path d="M258.8888888888889,167.77777777777777 L284.7304108290505,238.7767757927131 Q313.88293993984837,233.31713568906812,316.6239158078515,201.11111111111111 L258.8888888888889,167.77777777777777 Z" stroke="#595959" fill="#5BB9AF" stroke-width="0.0" id="d5" />
<use xlink:href="#d5" />
<use xlink:href="#d5" />
<use xlink:href="#d5" />
<use xlink:href="#d5" />
<path d="M258.8888888888889,167.77777777777777 L316.6239158078515,201.11111111111111 Q334.3908166198249,181.09080473224242,315.78889239626096,157.74477195702178 L258.8888888888889,167.77777777777777 Z" stroke="#595959" fill="#7bc2e0" stroke-width="0.0" id="d6" />
<use xlink:href="#d6" />
<use xlink:href="#d6" />
<use xlink:href="#d6" />
<use xlink:href="#d6" />
<path d="M258.8888888888889,167.77777777777777 L315.78889239626096,157.74477195702178 Q317.58616625650086,133.88888888888886,290.31406091800864,130.32671611418328 L258.8888888888889,167.77777777777777 Z" stroke="#595959" fill="#97A7C0" stroke-width="0.0" id="d7" />
<use xlink:href="#d7" />
<use xlink:href="#d7" />
<use xlink:href="#d7" />
<use xlink:href="#d7" />
<path d="M258.8888888888889,167.77777777777777 L290.31406091800864,130.32671611418328 Q279.0300751069561,112.44032344260759,258.8888888888889,127.77777777777774 L258.8888888888889,167.77777777777777 Z" stroke="#595959" fill="#B38DA0" stroke-width="0.0" id="d8" />
<use xlink:href="#d8" />
<use xlink:href="#d8" />
<use xlink:href="#d8" />
<use xlink:href="#d8" />
</svg>