<?xml version="1.0" encoding="UTF-8"?>
<svg xmlns="http://www.w3.org/2000/svg" xmlns:xlink="http://www.w3.org/1999/xlink"
     width="500" height="300" viewBox="0 0 500 300">
<defs>
</defs>
<rect x="0" y="0" width="500" height="101" fill="#ab0024" />
<rect x="0" y="100.0" width="500" height="101" fill="black" />
<rect x="0" y="200.0" width="500" height="101" fill="#ab0024" />
<circle cx="250.0" cy="150.0" r="112.71090242743517" stroke-width="15.0" fill="none" stroke="black" />
<path d="M250.7833190130092,37.28909757256483 C176.01987099357535,37.28909757256483,175.23655198056616,150.52221267533946,250.0,150.0 M152.17215881973965,205.87675626132307 C189.3362942147318,270.1959507739675,287.1641353949921,214.3191945126445,250.0,150.0 C286.9900645032123,84.98452192023623,385.9493664800415,141.03534907333915,348.17598296381993,205.52861447776343" stroke="black" fill="none" stroke-width="15.0" />
<circle cx="250.0" cy="93.64454878628241" r="18.78515040457253" fill="black" />
<circle cx="306.3554512137176" cy="178.1777256068588" r="18.78515040457253" fill="black" />
<circle cx="193.64454878628243" cy="178.1777256068588" r="18.78515040457253" fill="black" />
<circle cx="250.0" cy="150.0" r="107.34371659755732" stroke-width="18.0" fill="black" stroke="white" />
<path d="M250.74601810762783,42.65628340244269 C179.5427342795956,42.65628340244269,178.79671617196777,150.49734540508518,250.0,150.0 M156.8306274473711,203.2159583441172 C192.22504210926837,264.4723340704453,285.39441466189726,211.2563757263281,250.0,150.0 C285.2286328602022,88.08049706689165,379.4755871238491,141.46223721270394,343.50093615601907,202.8843947407271" stroke="white" fill="none" stroke-width="18.0" />
<circle cx="250.0" cy="96.32814170122134" r="12.523433603048353" fill="#ab0024" />
<circle cx="303.67185829877866" cy="176.83592914938933" r="12.523433603048353" fill="#ab0024" />
<circle cx="196.32814170122134" cy="176.83592914938933" r="12.523433603048353" fill="#ab0024" />
</svg>