<?xml version="1.0" encoding="UTF-8"?>
<svg xmlns="http://www.w3.org/2000/svg" xmlns:xlink="http://www.w3.org/1999/xlink"
     width="500" height="300" viewBox="0 0 500 300">
<defs>
</defs>
<rect x="0" y="0" width="500" height="301" fill="#fff200" />
<path d="M220.0,0 L280.0,150.0 L220.0,300 L500,300 L500,0 L250.0,0 Z" fill="#00a2e8" />
<circle cx="125.0" cy="100.0" r="30.0" fill="black" />
<circle cx="125.0" cy="200.0" r="30.0" fill="black" />
<circle cx="375.0" cy="100.0" r="30.0" fill="black" />
<circle cx="375.0" cy="200.0" r="30.0" fill="black" />
<path d="M236.9495241881852,150.0758671167838 C236.9495241881852,150.0758671167838,236.9495241881852,148.01543647166915,236.9495241881852,145.9550058265545 C236.9495241881852,121.22983808517863,224.93034542501638,88.26294776334417,194.02388574829658,12.02701389410197 C188.87280913550993,1.7248606685287058,185.43875806031883,-8.577292557044572,185.43875806031883,-8.577292557044572 C185.43875806031883,-8.577292557044572,199.1749623610832,-8.577292557044572,214.6281921994431,-8.577292557044572 H245.5346518761629 L257.55383063933175,22.329167119675247 C288.46029031605156,94.44423969868812,297.0454180040293,121.22983808517863,297.0454180040293,148.01543647166915 L297.0454180040293,150.0758671167838 H266.13895832730947 C240.3835752633763,150.0758671167838,236.9495241881852,150.0758671167838,236.9495241881852,150.0758671167838 Z" fill="black" />
<path d="M236.9495241881852,150.0758671167838 C236.9495241881852,150.0758671167838,236.9495241881852,148.01543647166915,236.9495241881852,145.9550058265545 C236.9495241881852,121.22983808517863,224.93034542501638,88.26294776334417,194.02388574829658,12.02701389410197 C188.87280913550993,1.7248606685287058,185.43875806031883,-8.577292557044572,185.43875806031883,-8.577292557044572 C185.43875806031883,-8.577292557044572,199.1749623610832,-8.577292557044572,214.6281921994431,-8.577292557044572 H245.5346518761629 L257.55383063933175,22.329167119675247 C288.46029031605156,94.44423969868812,297.0454180040293,121.22983808517863,297.0454180040293,148.01543647166915 L297.0454180040293,150.0758671167838 H266.13895832730947 C240.3835752633763,150.0758671167838,236.9495241881852,150.0758671167838,236.9495241881852,150.0758671167838 Z" fill="black" transform="translate(0, 300.0) scale(1,-1)" />
</svg>