<?xml version="1.0" encoding="UTF-8"?>
<svg xmlns="http://www.w3.org/2000/svg" xmlns:xlink="http://www.w3.org/1999/xlink"
     width="500" height="300" viewBox="0 0 500 300">
<defs>
</defs>
<path d="M0,0 L0,150.0 L350.0,150.0 L-50.0,-250.0 L0,-250.0 Z" fill="#eaba61" />
<path d="M500,0 L500,150.0 L350.0,150.0 L-50.0,-250.0 L500,-250.0 Z" fill="#ffed8e" />
<path d="M0,300 L0,150.0 L350.0,150.0 L-50.0,550.0 L0,550.0 Z" fill="#ea9461" />
<path d="M500,300 L500,150.0 L350.0,150.0 L-50.0,550.0 L500,550.0 Z" fill="#f9d19a" />
<path d="M150.0,150.0 L250.0,50.0 L250.0,250.0 L150.0,150.0 Z" fill="#ffEFb8" />
<path d="M350.0,150.0 L250.0,50.0 L250.0,250.0 L350.0,150.0 Z" fill="#7d5b2a" />
<path d="M150.0,150.0 L0,146.0" stroke-width="20.0" stroke="#ffEFb8" stroke-linecap="square" />
<path d="M350.0,150.0 L500,146.0" stroke-width="20.0" stroke="#7d5b2a" stroke-linecap="square" />
</svg>