<?xml version="1.0" encoding="UTF-8"?>
<svg xmlns="http://www.w3.org/2000/svg" xmlns:xlink="http://www.w3.org/1999/xlink"
     width="500" height="300" viewBox="0 0 500 300">
<defs>
</defs>
<path d="M-500,0 L0,300 L70,300 L-430,0 L-430,0 Z" fill="#595959" />
<path d="M-434,0 L66,300 L136,300 L-364,0 L-364,0 Z" fill="#595959" />
<path d="M-367,0 L133,300 L203,300 L-297,0 L-297,0 Z" fill="#595959" />
<path d="M-300,0 L200,300 L270,300 L-230,0 L-230,0 Z" fill="#595959" />
<path d="M-234,0 L266,300 L336,300 L-164,0 L-164,0 Z" fill="#595959" />
<path d="M-167,0 L333,300 L403,300 L-97,0 L-97,0 Z" fill="#CF7280" />
<path d="M-100,0 L400,300 L470,300 L-30,0 L-30,0 Z" fill="#EEDE77" />
<path d="M-34,0 L466,300 L536,300 L36,0 L36,0 Z" fill="#E8E8E8" />
<path d="M33,0 L533,300 L603,300 L103,0 L103,0 Z" fill="#7BC2E0" />
<path d="M100,0 L600,300 L670,300 L170,0 L170,0 Z" fill="#3CB07D" />
<path d="M166,0 L666,300 L736,300 L236,0 L236,0 Z" fill="#595959" />
<path d="M233,0 L733,300 L803,300 L303,0 L303,0 Z" fill="#595959" />
<path d="M300,0 L800,300 L870,300 L370,0 L370,0 Z" fill="#595959" />
<path d="M366,0 L866,300 L936,300 L436,0 L436,0 Z" fill="#595959" />
<path d="M433,0 L933,300 L1003,300 L503,0 L503,0 Z" fill="#595959" />
</svg>