<?xml version="1.0" encoding="UTF-8"?>
<svg xmlns="http://www.w3.org/2000/svg" xmlns:xlink="http://www.w3.org/1999/xlink"
     width="500" height="300" viewBox="0 0 500 300">
<defs>
</defs>
<path d="M-500.0,0.0 L0.0,300.0 L70.0,300.0 L-430.0,0.0 L-430.0,0.0 Z" fill="#595959" />
<path d="M-434.0,0.0 L66.0,300.0 L136.0,300.0 L-364.0,0.0 L-364.0,0.0 Z" fill="#595959" />
<path d="M-367.0,0.0 L133.0,300.0 L203.0,300.0 L-297.0,0.0 L-297.0,0.0 Z" fill="#595959" />
<path d="M-300.0,0.0 L200.0,300.0 L270.0,300.0 L-230.0,0.0 L-230.0,0.0 Z" fill="#595959" />
<path d="M-234.0,0.0 L266.0,300.0 L336.0,300.0 L-164.0,0.0 L-164.0,0.0 Z" fill="#595959" />
<path d="M-167.0,0.0 L333.0,300.0 L403.0,300.0 L-97.0,0.0 L-97.0,0.0 Z" fill="#CF7280" />
<path d="M-100.0,0.0 L400.0,300.0 L470.0,300.0 L-30.0,0.0 L-30.0,0.0 Z" fill="#EEDE77" />
<path d="M-34.0,0.0 L466.0,300.0 L536.0,300.0 L36.0,0.0 L36.0,0.0 Z" fill="#E8E8E8" />
<path d="M33.0,0.0 L533.0,300.0 L603.0,300.0 L103.0,0.0 L103.0,0.0 Z" fill="#7BC2E0" />
<path d="M100.0,0.0 L600.0,300.0 L670.0,300.0 L170.0,0.0 L170.0,0.0 Z" fill="#3CB07D" />
<path d="M166.0,0.0 L666.0,300.0 L736.0,300.0 L236.0,0.0 L236.0,0.0 Z" fill="#595959" />
<path d="M233.0,0.0 L733.0,300.0 L803.0,300.0 L303.0,0.0 L303.0,0.0 Z" fill="#595959" />
<path d="M300.0,0.0 L800.0,300.0 L870.0,300.0 L370.0,0.0 L370.0,0.0 Z" fill="#595959" />
<path d="M366.0,0.0 L866.0,300.0 L936.0,300.0 L436.0,0.0 L436.0,0.0 Z" fill="#595959" />
<path d="M433.0,0.0 L933.0,300.0 L1003.0,300.0 L503.0,0.0 L503.0,0.0 Z" fill="#595959" />
</svg>