<?xml version="1.0" encoding="UTF-8"?>
<svg xmlns="http://www.w3.org/2000/svg" xmlns:xlink="http://www.w3.org/1999/xlink"
     width="500" height="300" viewBox="0 0 500 300">
<defs>
</defs>
<path d="M0.0,0.0 L500.0,0.0 L500.0,300.0 L0.0,300.0 L0.0,30.0 L50.0,30.0 L50.0,270.0 L450.0,270.0 L450.0,30.0 L0.0,30.0 L0.0,0.0 Z" fill="#e5e5e5" />
<path d="M50.0,30.0 L450.0,30.0 L450.0,270.0 L50.0,270.0 L50.0,60.0 L100.0,60.0 L100.0,240.0 L400.0,240.0 L400.0,60.0 L50.0,60.0 L50.0,30.0 Z" fill="#acacac" />
<path d="M100.0,60.0 L400.0,60.0 L400.0,240.0 L100.0,240.0 L100.0,90.0 L150.0,90.0 L150.0,210.0 L350.0,210.0 L350.0,90.0 L100.0,90.0 L100.0,60.0 Z" fill="#727272" />
<path d="M150.0,90.0 L350.0,90.0 L350.0,210.0 L150.0,210.0 L150.0,120.0 L200.0,120.0 L200.0,180.0 L300.0,180.0 L300.0,120.0 L150.0,120.0 L150.0,90.0 Z" fill="#393939" />
<path d="M200.0,120.0 L300.0,120.0 L300.0,180.0 L200.0,180.0 L200.0,150.0 L250.0,150.0 L250.0,150.0 L250.0,150.0 L250.0,150.0 L200.0,150.0 L200.0,120.0 Z" fill="#000000" />
</svg>