<?xml version="1.0" encoding="UTF-8"?>
<svg xmlns="http://www.w3.org/2000/svg" xmlns:xlink="http://www.w3.org/1999/xlink"
     width="500" height="300" viewBox="0 0 500 300">
<defs>
</defs>
<rect x="0" y="0" width="500" height="34" fill="black" />
<rect x="0" y="33.33333333333333" width="500" height="34" fill="#2A2A7F" />
<rect x="0" y="66.66666666666666" width="500" height="34" fill="black" />
<rect x="0" y="99.99999999999999" width="500" height="34" fill="#2A2A7F" />
<rect x="0" y="133.33333333333331" width="500" height="34" fill="white" />
<rect x="0" y="166.66666666666663" width="500" height="34" fill="#2A2A7F" />
<rect x="0" y="199.99999999999994" width="500" height="34" fill="black" />
<rect x="0" y="233.33333333333326" width="500" height="34" fill="#2A2A7F" />
<rect x="0" y="266.6666666666666" width="500" height="34" fill="black" />
<path d="M114.58333333333333,21.875 C101.45833333333333,21.875,89.89583333333333,28.4375,83.33333333333333,38.75 C76.77083333333333,28.4375,65.20833333333333,21.875,52.08333333333333,21.875 C31.45833333333332,21.875,14.583333333333329,38.75,14.583333333333329,59.375 C14.583333333333329,96.875,83.33333333333333,127.8125,83.33333333333333,127.8125 S152.08333333333331,96.875,152.08333333333331,59.375 C152.08333333333331,38.75,135.20833333333334,21.875,114.58333333333333,21.875 Z" fill="#E70039" stroke="none" transform="rotate(-45,83.33333333333333,78.125)" />
</svg>