<?xml version="1.0" encoding="UTF-8"?>
<svg xmlns="http://www.w3.org/2000/svg" xmlns:xlink="http://www.w3.org/1999/xlink"
     width="500" height="300" viewBox="0 0 500 300">
<defs>
</defs>
<rect x="0" y="0" width="500" height="34" fill="black" />
<rect x="0" y="33" width="500" height="34" fill="#2A2A7F" />
<rect x="0" y="67" width="500" height="34" fill="black" />
<rect x="0" y="100" width="500" height="34" fill="#2A2A7F" />
<rect x="0" y="133" width="500" height="34" fill="white" />
<rect x="0" y="167" width="500" height="34" fill="#2A2A7F" />
<rect x="0" y="200" width="500" height="34" fill="black" />
<rect x="0" y="233" width="500" height="34" fill="#2A2A7F" />
<rect x="0" y="267" width="500" height="34" fill="black" />
<path d="M111.11111111111113,27.77777777777778 C99.44444444444446,27.77777777777778,89.16666666666669,33.611111111111114,83.33333333333334,42.777777777777786 C77.5,33.611111111111114,67.22222222222223,27.77777777777778,55.55555555555556,27.77777777777778 C37.22222222222222,27.77777777777778,22.22222222222222,42.777777777777786,22.22222222222222,61.111111111111114 C22.22222222222222,94.44444444444446,83.33333333333334,121.94444444444446,83.33333333333334,121.94444444444446 S144.44444444444446,94.44444444444446,144.44444444444446,61.111111111111114 C144.44444444444446,42.777777777777786,129.44444444444446,27.77777777777778,111.11111111111113,27.77777777777778 Z" fill="#E70039" stroke="none" transform="rotate(-45,83.33333333333334,77.77777777777779)" />
</svg>