<?xml version="1.0" encoding="UTF-8"?>
<svg xmlns="http://www.w3.org/2000/svg" xmlns:xlink="http://www.w3.org/1999/xlink"
     width="500" height="300" viewBox="0 0 500 300">
<defs>
</defs>
<rect x="0" y="0" width="500" height="301" fill="#87232F" />
<path d="M0.0,0 L250.0,300.3 L500.0,0 L428.57142857142856,0 L250.0,214.28571428571428 L71.42857142857143,0 L0.0,0 Z" stroke-width="0" fill="#F58187" stroke-linecap="square" />
<path d="M71.42857142857143,0 L250.0,214.5857142857143 L428.57142857142856,0 L357.1428571428571,0 L250.0,128.57142857142858 L142.85714285714286,0 L71.42857142857143,0 Z" stroke-width="0" fill="#CD101A" stroke-linecap="square" />
<path d="M142.85714285714286,0 L250.0,128.8714285714286 L357.1428571428571,0 L285.7142857142857,0 L250.0,42.85714285714289 L214.28571428571428,0 L142.85714285714286,0 Z" stroke-width="0" fill="#CD101A" stroke-linecap="square" />
<path d="M214.28571428571428,0 L250.0,43.15714285714289 L285.7142857142857,0 L214.28571428571428,0 L250.0,-42.85714285714283 L285.7142857142857,0 L214.28571428571428,0 Z" stroke-width="0" fill="#CD101A" stroke-linecap="square" />
</svg>