<?xml version="1.0" encoding="UTF-8"?>
<svg xmlns="http://www.w3.org/2000/svg" xmlns:xlink="http://www.w3.org/1999/xlink"
     width="500" height="300" viewBox="0 0 500 300">
<defs>
<clipPath id="d0">
<path d="M125.0,300 L375.0,300 L325.0,58.03571428571429 Q250.0,-24.464285714285708,175.0,58.03571428571429 L125.0,300 Z" fill="white" />
</clipPath>
</defs>
<rect x="0" y="0" width="500" height="101" fill="#450000" />
<rect x="0" y="100.0" width="500" height="101" fill="#2E0045" />
<rect x="0" y="200.0" width="500" height="101" fill="#000045" />
<path d="M187.5,0 L125.0,300 L160.71428571428572,300 L205.35714285714286,0 Z" fill="#FFFFFF" clip-path="url(#d0)" />
<path d="M205.35714285714286,0 L160.71428571428572,300 L196.42857142857144,300 L223.21428571428572,0 Z" fill="#999999" clip-path="url(#d0)" />
<path d="M223.21428571428572,0 L196.42857142857144,300 L232.14285714285717,300 L241.07142857142858,0 Z" fill="#000000" clip-path="url(#d0)" />
<path d="M241.07142857142858,0 L232.14285714285717,300 L267.8571428571429,300 L258.92857142857144,0 Z" fill="#331D00" clip-path="url(#d0)" />
<path d="M258.92857142857144,0 L267.8571428571429,300 L303.5714285714286,300 L276.7857142857143,0 Z" fill="#C45F12" clip-path="url(#d0)" />
<path d="M276.7857142857143,0 L303.5714285714286,300 L339.28571428571433,300 L294.6428571428571,0 Z" fill="#CC9933" clip-path="url(#d0)" />
<path d="M294.6428571428571,0 L339.28571428571433,300 L375.00000000000006,300 L312.49999999999994,0 Z" fill="#FFCC66" clip-path="url(#d0)" />
</svg>