<?xml version="1.0" encoding="UTF-8"?>
<svg xmlns="http://www.w3.org/2000/svg" xmlns:xlink="http://www.w3.org/1999/xlink"
     width="500" height="300" viewBox="0 0 500 300">
<defs>
</defs>
<rect x="0" y="0" width="500" height="101" fill="#009fe3" />
<rect x="0" y="100" width="500" height="101" fill="#e50051" />
<rect x="0" y="200" width="500" height="101" fill="#340c46" />
<path d="M0,0 L0,300 L200.0,100.0 L100.0,0 L0,0 Z" fill="white" stroke="none" stroke-width="6.0" />
<path d="M119.0,41.7375 C105.77000000000001,41.7375,94.11500000000001,48.35249999999999,87.5,58.7475 C80.88499999999999,48.35249999999999,69.22999999999999,41.7375,56.0,41.7375 C35.20999999999999,41.7375,18.200000000000003,58.7475,18.200000000000003,79.5375 C18.200000000000003,117.3375,87.5,148.5225,87.5,148.5225 S156.8,117.3375,156.8,79.5375 C156.8,58.7475,139.79000000000002,41.7375,119.0,41.7375 Z" fill="#fcbf00" stroke="none" transform="rotate(270,87.5,98.4375)" />
</svg>