<?xml version="1.0" encoding="UTF-8"?>
<svg xmlns="http://www.w3.org/2000/svg" xmlns:xlink="http://www.w3.org/1999/xlink"
     width="500" height="300" viewBox="0 0 500 300">
<defs>
</defs>
<rect x="0" y="0" width="500" height="51" fill="#E40303" />
<rect x="0" y="50.0" width="500" height="51" fill="#FF8C00" />
<rect x="0" y="100.0" width="500" height="51" fill="#FFED00" />
<rect x="0" y="150.0" width="500" height="51" fill="#008026" />
<rect x="0" y="200.0" width="500" height="51" fill="#24408E" />
<rect x="0" y="250.0" width="500" height="51" fill="#732982" />
<path d="M-17.142857142857146,0 L117.85714285714286,150.0 L-17.142857142857146,300 L-49.28571428571429,300 L-49.28571428571429,0 L-17.142857142857146,0 Z" fill="#FDD70A" />
<path d="M-49.28571428571429,0 L85.71428571428571,150.0 L-49.28571428571429,300 L-81.42857142857144,300 L-81.42857142857144,0 L-49.28571428571429,0 Z" fill="#FDD70A" />
<path d="M15.0,0 L150.0,150.0 L15.0,300 L-17.142857142857146,300 L117.85714285714286,150.0 L-17.142857142857146,0 Z" fill="white" />
<path d="M47.142857142857146,0 L182.14285714285714,150.0 L47.142857142857146,300 L15.0,300 L150.0,150.0 L15.0,0 Z" fill="#F5A9B8" />
<path d="M79.28571428571429,0 L214.28571428571428,150.0 L79.28571428571429,300 L47.142857142857146,300 L182.14285714285714,150.0 L47.142857142857146,0 Z" fill="#5BCEFA" />
<path d="M111.42857142857144,0 L246.42857142857144,150.0 L111.42857142857144,300 L79.28571428571429,300 L214.28571428571428,150.0 L79.28571428571429,0 Z" fill="#784f16" />
<path d="M143.57142857142858,0 L278.57142857142856,150.0 L143.57142857142858,300 L111.42857142857144,300 L246.42857142857144,150.0 L111.42857142857144,0 Z" fill="black" />
<circle cx="47.5" cy="150.0" r="30.0" fill="none" stroke-width="9.600000000000001" stroke="#7A01AA" fill-opacity="1.0" />
</svg>