<?xml version="1.0" encoding="UTF-8"?>
<svg xmlns="http://www.w3.org/2000/svg" xmlns:xlink="http://www.w3.org/1999/xlink"
     width="500" height="300" viewBox="0 0 500 300">
<defs>
</defs>
<rect x="0" y="0" width="500" height="300" fill="#7f7f7f" />
<path d="M0,0 L187.5,0 L250.0,37.5 L312.5,0 L500,0 L500,112.5 L437.5,150.0 L500,187.5 L500,300 L312.5,300 L250.0,262.5 L187.5,300 L0,300 L0,187.5 L62.5,150.0 L0,112.5 Z" fill="#c4c4c4" />
<path d="M0,0 L125.0,0 L250.0,75.0 L375.0,0 L500,0 L500,75.0 L375.0,150.0 L500,225.0 L500,300 L375.0,300 L250.0,225.0 L125.0,300 L0,300 L0,225.0 L125.0,150.0 L0,75.0 Z" fill="white" />
<path d="M0,0 L62.5,0 L250.0,112.5 L437.5,0 L500,0 L500,37.5 L312.5,150.0 L500,262.5 L500,300 L437.5,300 L250.0,187.5 L62.5,300 L0,300 L0,262.5 L187.5,150.0 L0,37.5 Z" fill="#feafc9" />
</svg>