<?xml version="1.0" encoding="UTF-8"?>
<svg xmlns="http://www.w3.org/2000/svg" xmlns:xlink="http://www.w3.org/1999/xlink"
     width="500" height="300" viewBox="0 0 500 300">
<defs>
</defs>
<rect x="0" y="0" width="500" height="51" fill="#E40303" />
<rect x="0" y="50.0" width="500" height="51" fill="#FF8C00" />
<rect x="0" y="100.0" width="500" height="51" fill="#FFED00" />
<rect x="0" y="150.0" width="500" height="51" fill="#008026" />
<rect x="0" y="200.0" width="500" height="51" fill="#24408E" />
<rect x="0" y="250.0" width="500" height="51" fill="#732982" />
<path d="M250.0,81.9375 L294.0838939219355,217.61377457812105 L277.77285317081936,195.16355298421627 L250.0,109.6875 L250.0,81.9375 Z" stroke="#026233" fill="#026233" stroke-width="0.3" stroke-linecap="butt" />
<path d="M321.3292387221365,133.76122542187895 L205.91610607806453,217.61377457812105 L222.22714682918064,195.16355298421627 L294.937420394946,142.33644701578373 L321.3292387221365,133.76122542187895 Z" stroke="#026233" fill="#026233" stroke-width="0.3" stroke-linecap="butt" />
<path d="M294.0838939219355,217.61377457812105 L178.67076127786348,133.76122542187895 L205.062579605054,142.33644701578373 L277.77285317081936,195.16355298421627 L294.0838939219355,217.61377457812105 Z" stroke="#026233" fill="#026233" stroke-width="0.3" stroke-linecap="butt" />
<path d="M205.91610607806453,217.61377457812105 L250.0,81.9375 L250.0,109.6875 L222.22714682918064,195.16355298421627 L205.91610607806453,217.61377457812105 Z" stroke="#026233" fill="#026233" stroke-width="0.3" stroke-linecap="butt" />
<path d="M178.67076127786348,133.76122542187895 L321.3292387221365,133.76122542187892 L294.937420394946,142.33644701578373 L205.062579605054,142.33644701578373 L178.67076127786348,133.76122542187895 Z" stroke="#026233" fill="#026233" stroke-width="0.3" stroke-linecap="butt" />
</svg>