<?xml version="1.0" encoding="UTF-8"?>
<svg xmlns="http://www.w3.org/2000/svg" xmlns:xlink="http://www.w3.org/1999/xlink"
     width="500" height="300" viewBox="0 0 500 300">
<defs>
</defs>
<rect x="0" y="0" width="500" height="51" fill="#E40303" />
<rect x="0" y="50.0" width="500" height="51" fill="#FF8C00" />
<rect x="0" y="100.0" width="500" height="51" fill="#FFED00" />
<rect x="0" y="150.0" width="500" height="51" fill="#008026" />
<rect x="0" y="200.0" width="500" height="51" fill="#24408E" />
<rect x="0" y="250.0" width="500" height="51" fill="#732982" />
<rect x="0" y="0" width="250.0" height="76" fill="black" />
<rect x="0" y="75.0" width="250.0" height="76" fill="#cc0600" />
<circle cx="125.0" cy="75.0" r="36.5625" fill="#ffff00" stroke="none" stroke-width="0" />
<path d="M125.0,187.5 L132.3217880976088,209.79615035414668 L154.31868059255112,201.6191324302975 L141.45190851806828,221.2449592394872 L161.5597967068184,233.3445350233618 L138.193406266648,235.52139040636612 L141.27064021690845,258.7863325463407 L125.0,241.875 L108.72935978309158,258.7863325463407 L111.80659373335199,235.52139040636612 L88.44020329318161,233.34453502336177 L108.54809148193172,221.2449592394872 L95.68131940744888,201.6191324302975 L117.6782119023912,209.79615035414668 Z" fill="white" stroke="none" stroke-width="0" />
<path d="M375.0,27.5 L379.3930728585653,40.877690212488005 L392.5912083555307,35.97147945817849 L384.871145110841,47.746975543692315 L396.93587802409104,55.006721014017074 L382.9160437599888,56.31283424381968 L384.76238413014505,70.27179952780443 L375.0,60.125 L365.23761586985495,70.27179952780443 L367.0839562400112,56.31283424381967 L353.06412197590896,55.00672101401707 L365.128854889159,47.746975543692315 L357.4087916444693,35.9714794581785 L370.6069271414347,40.877690212488005 Z" fill="white" stroke="none" stroke-width="0" />
<path d="M375.0,227.5 L379.3930728585653,240.877690212488 L392.5912083555307,235.9714794581785 L384.871145110841,247.74697554369232 L396.93587802409104,255.00672101401707 L382.9160437599888,256.3128342438197 L384.76238413014505,270.27179952780443 L375.0,260.125 L365.23761586985495,270.27179952780443 L367.0839562400112,256.3128342438197 L353.06412197590896,255.00672101401707 L365.128854889159,247.74697554369232 L357.4087916444693,235.9714794581785 L370.6069271414347,240.877690212488 Z" fill="white" stroke="none" stroke-width="0" />
<path d="M300.0,108.0 L304.3930728585653,121.377690212488 L317.5912083555307,116.4714794581785 L309.871145110841,128.24697554369232 L321.93587802409104,135.50672101401707 L307.9160437599888,136.81283424381968 L309.76238413014505,150.77179952780443 L300.0,140.625 L290.23761586985495,150.77179952780443 L292.0839562400112,136.81283424381968 L278.06412197590896,135.50672101401707 L290.128854889159,128.24697554369232 L282.4087916444693,116.4714794581785 L295.6069271414347,121.377690212488 Z" fill="white" stroke="none" stroke-width="0" />
<path d="M439.5,90.0 L443.8930728585653,103.377690212488 L457.0912083555307,98.4714794581785 L449.371145110841,110.24697554369232 L461.43587802409104,117.50672101401707 L447.4160437599888,118.81283424381968 L449.26238413014505,132.77179952780443 L439.5,122.625 L429.73761586985495,132.77179952780443 L431.5839562400112,118.81283424381968 L417.56412197590896,117.50672101401707 L429.628854889159,110.24697554369232 L421.9087916444693,98.4714794581785 L435.1069271414347,103.377690212488 Z" fill="white" stroke="none" stroke-width="0" />
<path d="M402.0,153.75 L403.57048872096897,162.83840771815443 L412.69938580832047,161.52355881328185 L404.54110412947614,165.82565478184557 L408.6125840882903,174.10144118671815 L402.0,167.671875 L395.3874159117097,174.10144118671815 L399.45889587052386,165.82565478184557 L391.30061419167953,161.52355881328185 L400.42951127903103,162.83840771815443 Z" fill="white" stroke="none" stroke-width="0" />
</svg>