<?xml version="1.0" encoding="UTF-8"?>
<svg xmlns="http://www.w3.org/2000/svg" xmlns:xlink="http://www.w3.org/1999/xlink"
     width="1000" height="600" viewBox="0 0 1000 600">
<defs>
</defs>
<rect x="0" y="0" width="1000" height="601" fill="white" />
<circle cx="360.0" cy="300.0" r="186.66666666666666" stroke="#2cad74" stroke-width="23.333333333333332" fill="none" />
<circle cx="360.0" cy="300.0" r="163.33333333333331" stroke="#98d570" stroke-width="23.333333333333332" fill="none" />
<circle cx="360.0" cy="300.0" r="140.0" stroke="#ffc65b" stroke-width="23.333333333333332" fill="none" />
<circle cx="360.0" cy="300.0" r="116.66666666666666" stroke="#f68249" stroke-width="23.333333333333332" fill="none" />
<circle cx="360.0" cy="300.0" r="93.33333333333333" stroke="#e43546" stroke-width="23.333333333333332" fill="none" />
<circle cx="640.0" cy="300.0" r="186.66666666666666" stroke="#e43546" stroke-width="23.333333333333332" fill="none" />
<circle cx="640.0" cy="300.0" r="163.33333333333331" stroke="#f68249" stroke-width="23.333333333333332" fill="none" />
<circle cx="640.0" cy="300.0" r="140.0" stroke="#ffc65b" stroke-width="23.333333333333332" fill="none" />
<circle cx="640.0" cy="300.0" r="116.66666666666666" stroke="#98d570" stroke-width="23.333333333333332" fill="none" />
<circle cx="640.0" cy="300.0" r="93.33333333333333" stroke="#2cad74" stroke-width="23.333333333333332" fill="none" />
<path d="M490.98715167879413,135.85870082433073 C579.2616115167119,220.1952998906773,556.8393910757524,342.3724466423577,601.2723836082223,358.31099149055274 C556.8393910757524,342.3724466423577,579.2616115167119,220.1952998906773,490.98715167879413,135.85870082433073 Z" stroke="white" stroke-width="23.333333333333332" fill="white" stroke-linecap="round" />
<path d="M476.4330237144837,154.09662295496065 C557.3354503650407,228.17576990160956,536.0492388446904,352.9655583029471,588.3631781442964,377.7479886540703 C536.0492388446904,352.9655583029471,557.3354503650407,228.17576990160956,476.4330237144837,154.09662295496065 Z" stroke="#2cad74" stroke-width="23.333333333333332" fill="#2cad74" stroke-linecap="round" />
<path d="M461.8788957501732,172.33454508559058 C535.4092892133696,236.15623991254185,515.2590866136285,363.55866996353654,575.4539726803705,397.18498581758786 C515.2590866136285,363.55866996353654,535.4092892133696,236.15623991254185,461.8788957501732,172.33454508559058 Z" stroke="#98d570" stroke-width="23.333333333333332" fill="#98d570" stroke-linecap="round" />
<path d="M447.3247677858628,190.57246721622047 C513.4831280616984,244.13670992347411,494.46893438256654,374.151781624126,562.5447672164446,416.6219829811054 C494.46893438256654,374.151781624126,513.4831280616984,244.13670992347411,447.3247677858628,190.57246721622047 Z" stroke="#ffc65b" stroke-width="23.333333333333332" fill="#ffc65b" stroke-linecap="round" />
<path d="M432.7706398215523,208.8103893468504 C491.5569669100272,252.11717993440638,473.6787821515047,384.74489328471543,549.6355617525187,436.058980144623 C473.6787821515047,384.74489328471543,491.5569669100272,252.11717993440638,432.7706398215523,208.8103893468504 Z" stroke="#f68249" stroke-width="23.333333333333332" fill="#f68249" stroke-linecap="round" />
<path d="M418.21651185724187,227.04831147748033 C469.63080575835596,260.0976499453387,452.8886299204428,395.3380049453049,536.7263562885928,455.4959773081406 C452.8886299204428,395.3380049453049,469.63080575835596,260.0976499453387,418.21651185724187,227.04831147748033 Z" stroke="#e43546" stroke-width="23.333333333333332" fill="#e43546" stroke-linecap="round" />
<path d="M403.6623838929314,245.28623360811025 C447.7046446066848,268.07811995627094,432.09847768938084,405.93111660589426,523.8171508246669,474.9329744716581 C432.09847768938084,405.93111660589426,447.7046446066848,268.07811995627094,403.6623838929314,245.28623360811025 Z" stroke="white" stroke-width="23.333333333333332" fill="white" stroke-linecap="round" />
</svg>