<?xml version="1.0" encoding="UTF-8"?>
<svg xmlns="http://www.w3.org/2000/svg" xmlns:xlink="http://www.w3.org/1999/xlink"
     width="1000" height="600" viewBox="0 0 1000 600">
<defs>
</defs>
<rect x="0" y="0" width="1000" height="601" fill="#f7f7f7" />
<path d="M-1000.0,0.0 L0.0,600.0 L202.0,600.0 L-798.0,0.0 L-798.0,0.0 Z" fill="#2cad74" />
<path d="M-800.0,0.0 L200.0,600.0 L402.0,600.0 L-598.0,0.0 L-598.0,0.0 Z" fill="#98d570" />
<path d="M-600.0,0.0 L400.0,600.0 L602.0,600.0 L-398.0,0.0 L-398.0,0.0 Z" fill="#ffc65b" />
<path d="M-400.0,0.0 L600.0,600.0 L802.0,600.0 L-198.0,0.0 L-198.0,0.0 Z" fill="#ffc65b" />
<path d="M-200.0,0.0 L800.0,600.0 L1002.0,600.0 L2.0,0.0 L2.0,0.0 Z" fill="#ffc65b" />
<path d="M0.0,0.0 L1000.0,600.0 L1202.0,600.0 L202.0,0.0 L202.0,0.0 Z" fill="#ffc65b" />
<path d="M200.0,0.0 L1200.0,600.0 L1402.0,600.0 L402.0,0.0 L402.0,0.0 Z" fill="#ffc65b" />
<path d="M400.0,0.0 L1400.0,600.0 L1602.0,600.0 L602.0,0.0 L602.0,0.0 Z" fill="#ffc65b" />
<path d="M600.0,0.0 L1600.0,600.0 L1802.0,600.0 L802.0,0.0 L802.0,0.0 Z" fill="#f68249" />
<path d="M800.0,0.0 L1800.0,600.0 L2002.0,600.0 L1002.0,0.0 L1002.0,0.0 Z" fill="#e43546" />
<path d="M520.4444444444445,340.8888888888889 L244.44444444444446,340.8888888888889 Q234.0731182599389,236.65825021039137,324.67753120292787,176.62094419121777 L520.4444444444445,340.8888888888889 Z" stroke="black" fill="#cf7280" stroke-width="0.0" id="d0" />
<use xlink:href="#d0" />
<use xlink:href="#d0" />
<use xlink:href="#d0" />
<use xlink:href="#d0" />
<path d="M520.4444444444445,340.8888888888889 L324.67753120292787,176.62094419121777 Q378.29166666666674,94.67305534072977,479.6178284507528,109.34964384735204 L520.4444444444445,340.8888888888889 Z" stroke="black" fill="#dfa87c" stroke-width="0.0" id="d1" />
<use xlink:href="#d1" />
<use xlink:href="#d1" />
<use xlink:href="#d1" />
<use xlink:href="#d1" />
<path d="M520.4444444444445,340.8888888888889 L479.6178284507528,109.34964384735204 Q566.2634455460603,81.03642094825108,627.7777777777777,154.98210220982943 L520.4444444444445,340.8888888888889 Z" stroke="black" fill="#eede77" stroke-width="0.0" id="d2" />
<use xlink:href="#d2" />
<use xlink:href="#d2" />
<use xlink:href="#d2" />
<use xlink:href="#d2" />
<path d="M520.4444444444445,340.8888888888889 L627.7777777777777,154.98210220982943 Q706.912429306989,184.4236715643571,702.9536334593075,274.4609766074146 L520.4444444444445,340.8888888888889 Z" stroke="black" fill="#95c77a" stroke-width="0.0" id="d3" />
<use xlink:href="#d3" />
<use xlink:href="#d3" />
<use xlink:href="#d3" />
<use xlink:href="#d3" />
<path d="M520.4444444444445,340.8888888888889 L702.9536334593075,274.4609766074146 Q743.4166666666666,340.8888888888889,683.7421398787956,400.32438935126066 L520.4444444444445,340.8888888888889 Z" stroke="black" fill="#3bb07d" stroke-width="0.0" id="d4" />
<use xlink:href="#d4" />
<use xlink:href="#d4" />
<use xlink:href="#d4" />
<use xlink:href="#d4" />
<path d="M520.4444444444445,340.8888888888889 L683.7421398787956,400.32438935126066 Q675.5897231883463,471.07123506179323,597.1111111111111,473.67945080250274 L520.4444444444445,340.8888888888889 Z" stroke="black" fill="#5bb9af" stroke-width="0.0" id="d5" />
<use xlink:href="#d5" />
<use xlink:href="#d5" />
<use xlink:href="#d5" />
<use xlink:href="#d5" />
<path d="M520.4444444444445,340.8888888888889 L597.1111111111111,473.67945080250274 Q552.062883461298,520.2059672498617,497.3685310567057,471.7588969558445 L520.4444444444445,340.8888888888889 Z" stroke="black" fill="#7bc2e0" stroke-width="0.0" id="d6" />
<use xlink:href="#d6" />
<use xlink:href="#d6" />
<use xlink:href="#d6" />
<use xlink:href="#d6" />
<path d="M520.4444444444445,340.8888888888889 L497.3685310567057,471.7588969558445 Q439.62500000000006,480.8722729061568,434.30700261817725,413.1667845558642 L520.4444444444445,340.8888888888889 Z" stroke="black" fill="#97a7c0" stroke-width="0.0" id="d7" />
<use xlink:href="#d7" />
<use xlink:href="#d7" />
<use xlink:href="#d7" />
<use xlink:href="#d7" />
<path d="M520.4444444444445,340.8888888888889 L434.30700261817725,413.1667845558642 Q387.7650669040342,389.18023301456594,428.44444444444457,340.8888888888889 L520.4444444444445,340.8888888888889 Z" stroke="black" fill="#b38da0" stroke-width="0.0" id="d8" />
<use xlink:href="#d8" />
<use xlink:href="#d8" />
<use xlink:href="#d8" />
<use xlink:href="#d8" />
</svg>