<?xml version="1.0" encoding="UTF-8"?>
<svg xmlns="http://www.w3.org/2000/svg" xmlns:xlink="http://www.w3.org/1999/xlink"
     width="1000" height="600" viewBox="0 0 1000 600">
<defs>
</defs>
<rect x="0" y="0" width="1000" height="601" fill="white" />
<circle cx="360.0" cy="300.0" r="192.5" stroke="#595959" stroke-width="17.5" fill="none" />
<circle cx="360.0" cy="300.0" r="175.0" stroke="#CF7280" stroke-width="17.5" fill="none" />
<circle cx="360.0" cy="300.0" r="157.5" stroke="#EEDE77" stroke-width="17.5" fill="none" />
<circle cx="360.0" cy="300.0" r="140.0" stroke="#E8E8E8" stroke-width="17.5" fill="none" />
<circle cx="360.0" cy="300.0" r="122.5" stroke="#7BC2E0" stroke-width="17.5" fill="none" />
<circle cx="360.0" cy="300.0" r="105.0" stroke="#3CB07D" stroke-width="17.5" fill="none" />
<circle cx="360.0" cy="300.0" r="87.5" stroke="#595959" stroke-width="17.5" fill="none" />
<circle cx="640.0" cy="300.0" r="192.5" stroke="#595959" stroke-width="17.5" fill="none" />
<circle cx="640.0" cy="300.0" r="175.0" stroke="#3CB07D" stroke-width="17.5" fill="none" />
<circle cx="640.0" cy="300.0" r="157.5" stroke="#7BC2E0" stroke-width="17.5" fill="none" />
<circle cx="640.0" cy="300.0" r="140.0" stroke="#E8E8E8" stroke-width="17.5" fill="none" />
<circle cx="640.0" cy="300.0" r="122.5" stroke="#EEDE77" stroke-width="17.5" fill="none" />
<circle cx="640.0" cy="300.0" r="105.0" stroke="#CF7280" stroke-width="17.5" fill="none" />
<circle cx="640.0" cy="300.0" r="87.5" stroke="#595959" stroke-width="17.5" fill="none" />
<path d="M490.98715167879413,135.85870082433073 C577.5593319815905,233.48543717557737,556.3233338532344,325.58252416323944,601.2723836082223,358.31099149055274" stroke="white" stroke-width="17.5" fill="white" stroke-linecap="round" />
<path d="M480.0715557055613,149.53714242230316 C560.8239987522375,238.60194200822528,539.5880006238813,330.6990289958873,591.5904795102779,372.8887393631909" stroke="#595959" stroke-width="17.5" fill="#595959" stroke-linecap="round" />
<path d="M469.1559597323285,163.2155840202756 C544.0886655228843,243.71844684087318,522.8526673945281,335.81553382853525,581.9085754123334,387.46648723582905" stroke="#CF7280" stroke-width="17.5" fill="#CF7280" stroke-linecap="round" />
<path d="M458.24036375909566,176.89402561824804 C527.3533322935311,248.83495167352106,506.117334165175,340.9320386611831,572.226671314389,402.04423510846726" stroke="#EEDE77" stroke-width="17.5" fill="#EEDE77" stroke-linecap="round" />
<path d="M447.3247677858628,190.57246721622047 C510.6179990641781,253.95145650616897,489.3820009358219,346.048543493831,562.5447672164446,416.6219829811054" stroke="#E8E8E8" stroke-width="17.5" fill="#E8E8E8" stroke-linecap="round" />
<path d="M436.40917181262995,204.2509088141929 C493.88266583482493,259.0679613388169,472.64666770646875,351.1650483264789,552.8628631185002,431.19973085374363" stroke="#7BC2E0" stroke-width="17.5" fill="#7BC2E0" stroke-linecap="round" />
<path d="M425.49357583939707,217.92935041216538 C477.14733260547183,264.18446617146475,455.91133447711564,356.2815531591268,543.1809590205557,445.7774787263818" stroke="#3CB07D" stroke-width="17.5" fill="#3CB07D" stroke-linecap="round" />
<path d="M414.57797986616424,231.6077920101378 C460.41199937611873,269.3009710041126,439.17600124776254,361.3980579917747,533.4990549226113,460.35522659901994" stroke="#595959" stroke-width="17.5" fill="#595959" stroke-linecap="round" />
<path d="M403.6623838929314,245.28623360811025 C443.67666614676557,274.41747583676056,422.4406680184094,366.51456282442257,523.8171508246669,474.9329744716581" stroke="white" stroke-width="17.5" fill="white" stroke-linecap="round" />
</svg>