<?xml version="1.0" encoding="UTF-8"?>
<svg xmlns="http://www.w3.org/2000/svg" xmlns:xlink="http://www.w3.org/1999/xlink"
     width="1000" height="600" viewBox="0 0 1000 600">
<defs>
</defs>
<rect x="0" y="0" width="1000" height="601" fill="#f7f7f7" />
<circle cx="360.0" cy="300.0" r="192.5" stroke="#595959" stroke-width="17.5" fill="none" />
<circle cx="360.0" cy="300.0" r="175.0" stroke="#CF7280" stroke-width="17.5" fill="none" />
<circle cx="360.0" cy="300.0" r="157.5" stroke="#EEDE77" stroke-width="17.5" fill="none" />
<circle cx="360.0" cy="300.0" r="140.0" stroke="#E8E8E8" stroke-width="17.5" fill="none" />
<circle cx="360.0" cy="300.0" r="122.5" stroke="#7BC2E0" stroke-width="17.5" fill="none" />
<circle cx="360.0" cy="300.0" r="105.0" stroke="#3CB07D" stroke-width="17.5" fill="none" />
<circle cx="360.0" cy="300.0" r="87.5" stroke="#595959" stroke-width="17.5" fill="none" />
<circle cx="640.0" cy="300.0" r="192.5" stroke="#595959" stroke-width="17.5" fill="none" />
<circle cx="640.0" cy="300.0" r="175.0" stroke="#3CB07D" stroke-width="17.5" fill="none" />
<circle cx="640.0" cy="300.0" r="157.5" stroke="#7BC2E0" stroke-width="17.5" fill="none" />
<circle cx="640.0" cy="300.0" r="140.0" stroke="#E8E8E8" stroke-width="17.5" fill="none" />
<circle cx="640.0" cy="300.0" r="122.5" stroke="#EEDE77" stroke-width="17.5" fill="none" />
<circle cx="640.0" cy="300.0" r="105.0" stroke="#CF7280" stroke-width="17.5" fill="none" />
<circle cx="640.0" cy="300.0" r="87.5" stroke="#595959" stroke-width="17.5" fill="none" />
<path d="M490.98715167879413,135.85870082433073 C573.7800712287942,222.19041739341037,562.0369291335178,339.7241687272103,601.2723836082223,358.31099149055274 C562.0369291335178,339.7241687272103,573.7800712287942,222.19041739341037,490.98715167879413,135.85870082433073 Z" stroke="#f7f7f7" stroke-width="17.5" fill="#f7f7f7" stroke-linecap="round" />
<path d="M480.0715557055613,149.53714242230316 C557.3354503650407,228.17576990160956,546.4443149602214,347.66900247265244,591.5904795102779,372.8887393631909 C546.4443149602214,347.66900247265244,557.3354503650407,228.17576990160956,480.0715557055613,149.53714242230316 Z" stroke="#595959" stroke-width="17.5" fill="#595959" stroke-linecap="round" />
<path d="M469.1559597323285,163.2155840202756 C540.8908295012874,234.16112240980877,530.851700786925,355.6138362180945,581.9085754123334,387.46648723582905 C530.851700786925,355.6138362180945,540.8908295012874,234.16112240980877,469.1559597323285,163.2155840202756 Z" stroke="#CF7280" stroke-width="17.5" fill="#CF7280" stroke-linecap="round" />
<path d="M458.24036375909566,176.89402561824804 C524.446208637534,240.14647491800798,515.2590866136285,363.55866996353654,572.226671314389,402.04423510846726 C515.2590866136285,363.55866996353654,524.446208637534,240.14647491800798,458.24036375909566,176.89402561824804 Z" stroke="#EEDE77" stroke-width="17.5" fill="#EEDE77" stroke-linecap="round" />
<path d="M447.3247677858628,190.57246721622047 C508.00158777378056,246.13182742620717,499.6664724403321,371.50350370897866,562.5447672164446,416.6219829811054 C499.6664724403321,371.50350370897866,508.00158777378056,246.13182742620717,447.3247677858628,190.57246721622047 Z" stroke="#E8E8E8" stroke-width="17.5" fill="#E8E8E8" stroke-linecap="round" />
<path d="M436.40917181262995,204.2509088141929 C491.5569669100272,252.11717993440638,484.07385826703563,379.4483374544207,552.8628631185002,431.19973085374363 C484.07385826703563,379.4483374544207,491.5569669100272,252.11717993440638,436.40917181262995,204.2509088141929 Z" stroke="#7BC2E0" stroke-width="17.5" fill="#7BC2E0" stroke-linecap="round" />
<path d="M425.49357583939707,217.92935041216538 C475.1123460462738,258.1025324426056,468.4812440937392,387.39317119986276,543.1809590205557,445.7774787263818 C468.4812440937392,387.39317119986276,475.1123460462738,258.1025324426056,425.49357583939707,217.92935041216538 Z" stroke="#3CB07D" stroke-width="17.5" fill="#3CB07D" stroke-linecap="round" />
<path d="M414.57797986616424,231.6077920101378 C458.66772518252037,264.0878849508048,452.8886299204428,395.3380049453049,533.4990549226113,460.35522659901994 C452.8886299204428,395.3380049453049,458.66772518252037,264.0878849508048,414.57797986616424,231.6077920101378 Z" stroke="#595959" stroke-width="17.5" fill="#595959" stroke-linecap="round" />
<path d="M403.6623838929314,245.28623360811025 C442.223104318767,270.07323745900396,437.2960157471463,403.2828386907469,523.8171508246669,474.9329744716581 C437.2960157471463,403.2828386907469,442.223104318767,270.07323745900396,403.6623838929314,245.28623360811025 Z" stroke="#f7f7f7" stroke-width="17.5" fill="#f7f7f7" stroke-linecap="round" />
</svg>