<?xml version="1.0" encoding="UTF-8"?>
<svg xmlns="http://www.w3.org/2000/svg" xmlns:xlink="http://www.w3.org/1999/xlink"
     width="1000" height="600" viewBox="0 0 1000 600">
<defs>
</defs>
<rect x="0" y="0" width="1000" height="601" fill="white" />
<circle cx="360.0" cy="300.0" r="186.66666666666666" stroke="#2cad74" stroke-width="23.333333333333332" fill="none" />
<circle cx="360.0" cy="300.0" r="163.33333333333331" stroke="#98d570" stroke-width="23.333333333333332" fill="none" />
<circle cx="360.0" cy="300.0" r="140.0" stroke="#ffc65b" stroke-width="23.333333333333332" fill="none" />
<circle cx="360.0" cy="300.0" r="116.66666666666666" stroke="#f68249" stroke-width="23.333333333333332" fill="none" />
<circle cx="360.0" cy="300.0" r="93.33333333333333" stroke="#e43546" stroke-width="23.333333333333332" fill="none" />
<circle cx="640.0" cy="300.0" r="186.66666666666666" stroke="#e43546" stroke-width="23.333333333333332" fill="none" />
<circle cx="640.0" cy="300.0" r="163.33333333333331" stroke="#f68249" stroke-width="23.333333333333332" fill="none" />
<circle cx="640.0" cy="300.0" r="140.0" stroke="#ffc65b" stroke-width="23.333333333333332" fill="none" />
<circle cx="640.0" cy="300.0" r="116.66666666666666" stroke="#98d570" stroke-width="23.333333333333332" fill="none" />
<circle cx="640.0" cy="300.0" r="93.33333333333333" stroke="#2cad74" stroke-width="23.333333333333332" fill="none" />
<path d="M490.98715167879413,135.85870082433073 C583.1377763913749,231.77993556469477,550.74488944345,327.2880257741221,601.2723836082223,358.31099149055274" stroke="white" stroke-width="23.333333333333332" fill="white" stroke-linecap="round" />
<path d="M476.4330237144837,154.09662295496065 C560.8239987522375,238.60194200822528,528.4311118043125,334.1100322176526,588.3631781442964,377.7479886540703" stroke="#2cad74" stroke-width="23.333333333333332" fill="#2cad74" stroke-linecap="round" />
<path d="M461.8788957501732,172.33454508559058 C538.5102211131,245.4239484517558,506.117334165175,340.9320386611831,575.4539726803705,397.18498581758786" stroke="#98d570" stroke-width="23.333333333333332" fill="#98d570" stroke-linecap="round" />
<path d="M447.3247677858628,190.57246721622047 C516.1964434739624,252.24595489528633,483.8035565260375,347.75404510471367,562.5447672164446,416.6219829811054" stroke="#ffc65b" stroke-width="23.333333333333332" fill="#ffc65b" stroke-linecap="round" />
<path d="M432.7706398215523,208.8103893468504 C493.88266583482493,259.0679613388169,461.4897788869,354.57605154824415,549.6355617525187,436.058980144623" stroke="#f68249" stroke-width="23.333333333333332" fill="#f68249" stroke-linecap="round" />
<path d="M418.21651185724187,227.04831147748033 C471.56888819568746,265.88996778234736,439.17600124776254,361.3980579917747,536.7263562885928,455.4959773081406" stroke="#e43546" stroke-width="23.333333333333332" fill="#e43546" stroke-linecap="round" />
<path d="M403.6623838929314,245.28623360811025 C449.25511055655,272.7119742258779,416.8622236086251,368.2200644353052,523.8171508246669,474.9329744716581" stroke="white" stroke-width="23.333333333333332" fill="white" stroke-linecap="round" />
</svg>