<?xml version="1.0" encoding="UTF-8"?>
<svg xmlns="http://www.w3.org/2000/svg" xmlns:xlink="http://www.w3.org/1999/xlink"
     width="1000" height="600" viewBox="0 0 1000 600">
<defs>
</defs>
<rect x="0" y="0" width="1000" height="87" fill="#243444" />
<rect x="0" y="85.71428571428571" width="1000" height="87" fill="#3dcec1" />
<rect x="0" y="171.42857142857142" width="1000" height="87" fill="#eae186" />
<rect x="0" y="257.1428571428571" width="1000" height="87" fill="white" />
<rect x="0" y="342.85714285714283" width="1000" height="87" fill="#eae186" />
<rect x="0" y="428.57142857142856" width="1000" height="87" fill="#3dcec1" />
<rect x="0" y="514.2857142857142" width="1000" height="87" fill="#243444" />
<circle cx="500.0" cy="300.0" r="175.5" fill="white" stroke="none" stroke-width="0" />
<path d="M175.55555555555554,317.77777777777777 L55.55555555555554,317.77777777777777 Q52.22089907740508,272.8876339662838,90.43950632011354,246.3569322570512 L175.55555555555554,317.77777777777777 Z" stroke="black" fill="#cf7280" stroke-width="0.0" id="d0" />
<use xlink:href="#d0" />
<use xlink:href="#d0" />
<use xlink:href="#d0" />
<use xlink:href="#d0" />
<path d="M175.55555555555554,317.77777777777777 L90.43950632011354,246.3569322570512 Q114.375,211.8099471202652,157.80485294960266,217.1085408031965 L175.55555555555554,317.77777777777777 Z" stroke="black" fill="#dfa87c" stroke-width="0.0" id="d1" />
<use xlink:href="#d1" />
<use xlink:href="#d1" />
<use xlink:href="#d1" />
<use xlink:href="#d1" />
<path d="M175.55555555555554,317.77777777777777 L157.80485294960266,217.1085408031965 Q195.2598001602614,206.02945358180915,222.2222222222222,236.94874009123015 L175.55555555555554,317.77777777777777 Z" stroke="black" fill="#eede77" stroke-width="0.0" id="d2" />
<use xlink:href="#d2" />
<use xlink:href="#d2" />
<use xlink:href="#d2" />
<use xlink:href="#d2" />
<path d="M175.55555555555554,317.77777777777777 L222.2222222222222,236.94874009123015 Q255.67103689841534,250.55290693139386,254.9073768663656,288.8960767858324 L175.55555555555554,317.77777777777777 Z" stroke="black" fill="#95c77a" stroke-width="0.0" id="d3" />
<use xlink:href="#d3" />
<use xlink:href="#d3" />
<use xlink:href="#d3" />
<use xlink:href="#d3" />
<path d="M175.55555555555554,317.77777777777777 L254.9073768663656,288.8960767858324 Q271.25,317.77777777777777,246.55455357049087,343.6192997179394 L175.55555555555554,317.77777777777777 Z" stroke="black" fill="#3bb07d" stroke-width="0.0" id="d4" />
<use xlink:href="#d4" />
<use xlink:href="#d4" />
<use xlink:href="#d4" />
<use xlink:href="#d4" />
<path d="M175.55555555555554,317.77777777777777 L246.55455357049087,343.6192997179394 Q242.05246902074464,373.5753133408454,208.88888888888889,375.5128046967403 L175.55555555555554,317.77777777777777 Z" stroke="black" fill="#5bb9af" stroke-width="0.0" id="d5" />
<use xlink:href="#d5" />
<use xlink:href="#d5" />
<use xlink:href="#d5" />
<use xlink:href="#d5" />
<path d="M175.55555555555554,317.77777777777777 L208.88888888888889,375.5128046967403 Q189.08564273210385,394.510715199979,165.52254973479955,374.6777812851498 L175.55555555555554,317.77777777777777 Z" stroke="black" fill="#7bc2e0" stroke-width="0.0" id="d6" />
<use xlink:href="#d6" />
<use xlink:href="#d6" />
<use xlink:href="#d6" />
<use xlink:href="#d6" />
<path d="M175.55555555555554,317.77777777777777 L165.52254973479955,374.6777812851498 Q141.04166666666663,377.55758690012027,138.10449389196106,349.2029498068975 L175.55555555555554,317.77777777777777 Z" stroke="black" fill="#97a7c0" stroke-width="0.0" id="d7" />
<use xlink:href="#d7" />
<use xlink:href="#d7" />
<use xlink:href="#d7" />
<use xlink:href="#d7" />
<path d="M175.55555555555554,317.77777777777777 L138.10449389196106,349.2029498068975 Q119.04348544440296,338.34648917500203,135.55555555555551,317.77777777777777 L175.55555555555554,317.77777777777777 Z" stroke="black" fill="#b38da0" stroke-width="0.0" id="d8" />
<use xlink:href="#d8" />
<use xlink:href="#d8" />
<use xlink:href="#d8" />
<use xlink:href="#d8" />
</svg>