<?xml version="1.0" encoding="UTF-8"?>
<svg xmlns="http://www.w3.org/2000/svg" xmlns:xlink="http://www.w3.org/1999/xlink"
     width="1000" height="600" viewBox="0 0 1000 600">
<defs>
</defs>
<rect x="0" y="0" width="1000" height="601" fill="#595959" />
<circle cx="360.0" cy="300.0" r="182.0" stroke="#796098" stroke-width="28.0" fill="none" />
<circle cx="360.0" cy="300.0" r="154.0" stroke="#bf7998" stroke-width="28.0" fill="none" />
<circle cx="360.0" cy="300.0" r="126.0" stroke="#796098" stroke-width="28.0" fill="none" />
<circle cx="360.0" cy="300.0" r="98.0" stroke="#bf7998" stroke-width="28.0" fill="none" />
<circle cx="640.0" cy="300.0" r="182.0" stroke="#bf7998" stroke-width="28.0" fill="none" />
<circle cx="640.0" cy="300.0" r="154.0" stroke="#796098" stroke-width="28.0" fill="none" />
<circle cx="640.0" cy="300.0" r="126.0" stroke="#bf7998" stroke-width="28.0" fill="none" />
<circle cx="640.0" cy="300.0" r="98.0" stroke="#796098" stroke-width="28.0" fill="none" />
<path d="M490.98715167879413,135.85870082433073 C587.6005319192025,230.41553427598865,546.2821339156226,328.65242706282817,601.2723836082223,358.31099149055274" stroke="#595959" stroke-width="28.0" fill="#595959" stroke-linecap="round" />
<path d="M473.5221981216216,157.74420738108662 C560.8239987522375,238.60194200822528,519.5056007486576,336.8388347950648,585.7813370515112,381.6353880867738" stroke="#796098" stroke-width="28.0" fill="#796098" stroke-linecap="round" />
<path d="M456.05724456444904,179.62971393784252 C534.0474655852724,246.7883497404619,492.72906758169256,345.02524252730143,570.2902904948002,404.9597846829949" stroke="#bf7998" stroke-width="28.0" fill="#bf7998" stroke-linecap="round" />
<path d="M438.5922910072765,201.51522049459842 C507.27093241830744,254.97475747269854,465.95253441472755,353.21165025953803,554.799243938089,428.284181279216" stroke="#796098" stroke-width="28.0" fill="#796098" stroke-linecap="round" />
<path d="M421.12733745010394,223.40072705135435 C480.4943992513425,263.1611652049352,439.17600124776254,361.3980579917747,539.308197381378,451.60857787543705" stroke="#bf7998" stroke-width="28.0" fill="#bf7998" stroke-linecap="round" />
<path d="M403.6623838929314,245.28623360811025 C453.7178660843775,271.3475729371718,412.39946808079753,369.5844657240113,523.8171508246669,474.9329744716581" stroke="#595959" stroke-width="28.0" fill="#595959" stroke-linecap="round" />
</svg>