<?xml version="1.0" encoding="UTF-8"?>
<svg xmlns="http://www.w3.org/2000/svg" xmlns:xlink="http://www.w3.org/1999/xlink"
     width="1000" height="600" viewBox="0 0 1000 600">
<defs>
</defs>
<rect x="0" y="0" width="1000" height="601" fill="#595959" />
<path d="M522.2222222222222,344.44444444444446 L222.22222222222217,344.44444444444446 Q213.885581026846,232.2190849157094,309.43209913361716,165.892330642628 L522.2222222222222,344.44444444444446 Z" stroke="black" fill="#cf7280" stroke-width="0.0" id="d0" />
<use xlink:href="#d0" />
<use xlink:href="#d0" />
<use xlink:href="#d0" />
<use xlink:href="#d0" />
<path d="M522.2222222222222,344.44444444444446 L309.43209913361716,165.892330642628 Q369.2708333333333,79.52486780066306,477.84546570734,92.77135200799131 L522.2222222222222,344.44444444444446 Z" stroke="black" fill="#dfa87c" stroke-width="0.0" id="d1" />
<use xlink:href="#d1" />
<use xlink:href="#d1" />
<use xlink:href="#d1" />
<use xlink:href="#d1" />
<path d="M522.2222222222222,344.44444444444446 L477.84546570734,92.77135200799131 Q571.4828337339868,65.07363395452296,638.8888888888888,142.37185022807543 L522.2222222222222,344.44444444444446 Z" stroke="black" fill="#eede77" stroke-width="0.0" id="d2" />
<use xlink:href="#d2" />
<use xlink:href="#d2" />
<use xlink:href="#d2" />
<use xlink:href="#d2" />
<path d="M522.2222222222222,344.44444444444446 L638.8888888888888,142.37185022807543 Q722.5109255793716,176.38226732848466,720.6017754992472,272.240191964581 L522.2222222222222,344.44444444444446 Z" stroke="black" fill="#95c77a" stroke-width="0.0" id="d3" />
<use xlink:href="#d3" />
<use xlink:href="#d3" />
<use xlink:href="#d3" />
<use xlink:href="#d3" />
<path d="M522.2222222222222,344.44444444444446 L720.6017754992472,272.240191964581 Q761.4583333333333,344.4444444444444,699.7197172595604,409.0482492948485 L522.2222222222222,344.44444444444446 Z" stroke="black" fill="#3bb07d" stroke-width="0.0" id="d4" />
<use xlink:href="#d4" />
<use xlink:href="#d4" />
<use xlink:href="#d4" />
<use xlink:href="#d4" />
<path d="M522.2222222222222,344.44444444444446 L699.7197172595604,409.0482492948485 Q688.4645058851947,483.93828335211356,605.5555555555554,488.78201174185085 L522.2222222222222,344.44444444444446 Z" stroke="black" fill="#5bb9af" stroke-width="0.0" id="d5" />
<use xlink:href="#d5" />
<use xlink:href="#d5" />
<use xlink:href="#d5" />
<use xlink:href="#d5" />
<path d="M522.2222222222222,344.44444444444446 L605.5555555555554,488.78201174185085 Q556.0474401635929,536.2767879999474,497.1397076703322,486.69445321287446 L522.2222222222222,344.44444444444446 Z" stroke="black" fill="#7bc2e0" stroke-width="0.0" id="d6" />
<use xlink:href="#d6" />
<use xlink:href="#d6" />
<use xlink:href="#d6" />
<use xlink:href="#d6" />
<path d="M522.2222222222222,344.44444444444446 L497.1397076703322,486.69445321287446 Q435.93749999999994,493.89396725030065,428.594568063236,423.0073745172437 L522.2222222222222,344.44444444444446 Z" stroke="black" fill="#97a7c0" stroke-width="0.0" id="d7" />
<use xlink:href="#d7" />
<use xlink:href="#d7" />
<use xlink:href="#d7" />
<use xlink:href="#d7" />
<path d="M522.2222222222222,344.44444444444446 L428.594568063236,423.0073745172437 Q380.94204694434086,395.86622293750503,422.22222222222223,344.44444444444446 L522.2222222222222,344.44444444444446 Z" stroke="black" fill="#b38da0" stroke-width="0.0" id="d8" />
<use xlink:href="#d8" />
<use xlink:href="#d8" />
<use xlink:href="#d8" />
<use xlink:href="#d8" />
</svg>