<?xml version="1.0" encoding="UTF-8" standalone="no"?>
<!-- Created with Inkscape (http://www.inkscape.org/) -->

<svg
   width="1374.7159mm"
   height="1374.7159mm"
   viewBox="0 0 1374.716 1374.7159"
   version="1.1"
   id="svg1"
   xml:space="preserve"
   inkscape:version="1.3.2 (091e20ef0f, 2023-11-25)"
   sodipodi:docname="ADHD.svg"
   xmlns:inkscape="http://www.inkscape.org/namespaces/inkscape"
   xmlns:sodipodi="http://sodipodi.sourceforge.net/DTD/sodipodi-0.dtd"
   xmlns:xlink="http://www.w3.org/1999/xlink"
   xmlns="http://www.w3.org/2000/svg"
   xmlns:svg="http://www.w3.org/2000/svg"><sodipodi:namedview
     id="namedview1"
     pagecolor="#ffffff"
     bordercolor="#000000"
     borderopacity="0.25"
     inkscape:showpageshadow="2"
     inkscape:pageopacity="0.0"
     inkscape:pagecheckerboard="0"
     inkscape:deskcolor="#d1d1d1"
     inkscape:document-units="mm"
     inkscape:zoom="0.075991499"
     inkscape:cx="3835.9554"
     inkscape:cy="2579.2359"
     inkscape:window-width="1725"
     inkscape:window-height="1154"
     inkscape:window-x="109"
     inkscape:window-y="99"
     inkscape:window-maximized="0"
     inkscape:current-layer="layer1" /><defs
     id="defs1"><linearGradient
       id="linearGradient34"
       inkscape:collect="always"><stop
         style="stop-color:#ffff01;stop-opacity:1;"
         offset="0.5"
         id="stop36" /><stop
         style="stop-color:#fe5c00;stop-opacity:1;"
         offset="1"
         id="stop35" /></linearGradient><linearGradient
       id="linearGradient32"
       inkscape:collect="always"><stop
         style="stop-color:#9ecf01;stop-opacity:1;"
         offset="0"
         id="stop32" /><stop
         style="stop-color:#cfe701;stop-opacity:1;"
         offset="0.59917766"
         id="stop37" /><stop
         style="stop-color:#ffff01;stop-opacity:1;"
         offset="1"
         id="stop33" /></linearGradient><linearGradient
       id="linearGradient29"
       inkscape:collect="always"><stop
         style="stop-color:#1a00f1;stop-opacity:1;"
         offset="0"
         id="stop30" /><stop
         style="stop-color:#82009c;stop-opacity:1;"
         offset="1"
         id="stop31" /></linearGradient><linearGradient
       id="linearGradient24"
       inkscape:collect="always"><stop
         style="stop-color:#5500d5;stop-opacity:1;"
         offset="0"
         id="stop21" /><stop
         style="stop-color:#0000fe;stop-opacity:1;"
         offset="0.26162022"
         id="stop22" /><stop
         style="stop-color:#008001;stop-opacity:1;"
         offset="0.53566027"
         id="stop23" /><stop
         style="stop-color:#ffff01;stop-opacity:1;"
         offset="1"
         id="stop24" /></linearGradient><linearGradient
       id="linearGradient16"
       inkscape:collect="always"><stop
         style="stop-color:#5500d5;stop-opacity:1;"
         offset="0"
         id="stop16" /><stop
         style="stop-color:#fe0000;stop-opacity:1;"
         offset="0.67193907"
         id="stop25" /><stop
         style="stop-color:#ffd901;stop-opacity:1;"
         offset="1"
         id="stop17" /></linearGradient><linearGradient
       inkscape:collect="always"
       xlink:href="#linearGradient24"
       id="linearGradient8"
       x1="76.461311"
       y1="171.0816"
       x2="148.06108"
       y2="171.0816"
       gradientUnits="userSpaceOnUse" /><linearGradient
       inkscape:collect="always"
       xlink:href="#linearGradient16"
       id="linearGradient17"
       x1="76.461311"
       y1="171.0816"
       x2="148.06108"
       y2="171.0816"
       gradientUnits="userSpaceOnUse" /><linearGradient
       inkscape:collect="always"
       xlink:href="#linearGradient29"
       id="linearGradient31"
       x1="83.17276"
       y1="158.04074"
       x2="84.151566"
       y2="155.83778"
       gradientUnits="userSpaceOnUse" /><linearGradient
       inkscape:collect="always"
       xlink:href="#linearGradient32"
       id="linearGradient33"
       x1="135.81912"
       y1="156.60312"
       x2="138.72058"
       y2="158.65993"
       gradientUnits="userSpaceOnUse" /><linearGradient
       inkscape:collect="always"
       xlink:href="#linearGradient34"
       id="linearGradient35"
       x1="144.36256"
       y1="156.03423"
       x2="136.36742"
       y2="166.18082"
       gradientUnits="userSpaceOnUse" /><linearGradient
       inkscape:collect="always"
       xlink:href="#linearGradient24"
       id="linearGradient1"
       gradientUnits="userSpaceOnUse"
       x1="76.461311"
       y1="171.0816"
       x2="148.06108"
       y2="171.0816" /><linearGradient
       inkscape:collect="always"
       xlink:href="#linearGradient24"
       id="linearGradient2"
       gradientUnits="userSpaceOnUse"
       x1="76.461311"
       y1="171.0816"
       x2="148.06108"
       y2="171.0816" /><linearGradient
       inkscape:collect="always"
       xlink:href="#linearGradient24"
       id="linearGradient3"
       gradientUnits="userSpaceOnUse"
       x1="76.461311"
       y1="171.0816"
       x2="148.06108"
       y2="171.0816" /><linearGradient
       inkscape:collect="always"
       xlink:href="#linearGradient24"
       id="linearGradient4"
       gradientUnits="userSpaceOnUse"
       x1="76.461311"
       y1="171.0816"
       x2="148.06108"
       y2="171.0816" /></defs><g
     inkscape:label="Layer 1"
     inkscape:groupmode="layer"
     id="layer1"
     transform="translate(-312.64217,-246.02145)"><g
       id="g8"
       transform="matrix(19.2,0,0,19.2,-1155.415,-2351.385)"
       style="fill:url(#linearGradient8);fill-opacity:1"><path
         id="path10"
         style="display:inline;fill:url(#linearGradient17)"
         d="m 84.878886,152.64589 c -2.825792,0.0128 -5.646692,0.33634 -8.417575,1.07384 1.378618,1.1807 2.785207,2.32936 4.124813,3.55482 3.377994,3.04812 6.107198,7.00186 7.138066,11.50989 0.688998,3.01299 -1.486426,9.10487 -0.255798,12.5181 2.813524,7.8035 11.16712,9.35604 15.647108,7.5153 4.29524,-1.76484 6.80732,-5.80808 9.14569,-9.51776 l 2.57814,-4.33359 c 3.58477,-5.78122 7.61493,-11.66065 13.51184,-15.29984 3.38812,-2.09018 6.80256,-2.41349 8.40052,-2.43086 0.53265,-0.006 0.86326,0.0224 0.92397,0.0305 0,0 -2.00686,2.2389 -3.01428,4.27674 -1.00741,2.03784 -2.1515,4.89675 -2.24689,7.96541 -0.17853,5.74317 2.81204,8.75884 -0.81598,13.24932 -1.40128,1.73441 -4.42151,2.86392 -6.68589,2.45256 -4.6618,-0.8469 -7.15929,-5.01182 -9.3183,-8.88731 l -2.41019,4.40593 c 2.1019,3.27426 4.47469,6.5489 8.22276,8.08891 4.47997,1.84074 12.83358,0.2882 15.64711,-7.5153 1.23061,-3.41323 -0.9448,-9.50511 -0.2558,-12.5181 1.03087,-4.50803 3.76008,-8.46177 7.13806,-11.50989 1.33961,-1.22546 2.7462,-2.37412 4.12482,-3.55482 -4.43342,-1.17999 -8.99516,-1.30007 -13.49892,-0.78394 -3.46726,0.39736 -6.87368,1.74341 -9.78648,3.65508 -5.92688,3.88977 -8.61348,7.9104 -12.51449,14.14332 l -2.57813,4.2323 c -2.35213,4.1992 -4.86163,9.29703 -10.073291,10.24382 -2.264374,0.41136 -5.2846,-0.71815 -6.685896,-2.45256 -3.628014,-4.49048 -0.637443,-7.50615 -0.815971,-13.24932 -0.09539,-3.06866 -1.239484,-5.92757 -2.246892,-7.96541 -1.007418,-2.03784 -3.014286,-4.27674 -3.014286,-4.27674 0.06072,-0.008 0.391322,-0.0363 0.923975,-0.0305 1.597956,0.0174 5.012387,0.34068 8.400521,2.43086 5.39161,3.32735 9.2175,8.52809 12.57443,13.81363 l 2.66185,-4.09588 c -3.46091,-5.46535 -6.18085,-9.19709 -11.660788,-12.79353 -2.912814,-1.91167 -6.319229,-3.25772 -9.786483,-3.65508 -1.688914,-0.19354 -3.385869,-0.2976 -5.081343,-0.2899 z"
         inkscape:label="path1" /><path
         id="path1"
         style="display:inline;fill:url(#linearGradient1);fill-opacity:1"
         d="m 76.461311,153.71973 c 1.378618,1.1807 2.785207,2.32936 4.124813,3.55482 3.377994,3.04812 6.107198,7.00186 7.138066,11.50989 0.688998,3.01299 -1.486426,9.10487 -0.255798,12.5181 2.813524,7.8035 11.16712,9.35604 15.647108,7.5153 4.29524,-1.76484 6.80732,-5.80808 9.14569,-9.51776 l 2.57814,-4.33359 c 3.58477,-5.78122 7.61493,-11.66065 13.51184,-15.29984 3.38812,-2.09018 6.80256,-2.41349 8.40052,-2.43086 0.53265,-0.006 0.86326,0.0224 0.92397,0.0305 l 6.2606,0.008 c 1.33961,-1.22546 2.7462,-2.37412 4.12482,-3.55482 -4.43342,-1.17999 -8.99516,-1.30007 -13.49892,-0.78394 -3.46726,0.39736 -6.87368,1.74341 -9.78648,3.65508 -5.92688,3.88977 -8.61348,7.9104 -12.51449,14.14332 l -2.57813,4.2323 c -2.35213,4.1992 -4.86163,9.29703 -10.073291,10.24382 -2.264374,0.41136 -5.2846,-0.71815 -6.685896,-2.45256 -3.628014,-4.49048 -0.637443,-7.50615 -0.815971,-13.24932 -0.09539,-3.06866 -1.239484,-5.92757 -2.246892,-7.96541 -1.007418,-2.03784 -3.014286,-4.27674 -3.014286,-4.27674 z"
         inkscape:label="overlayer"
         sodipodi:nodetypes="ccssscccccccscccscsccc" /><path
         id="path25"
         style="display:inline;fill:url(#linearGradient31)"
         d="m 84.878886,152.64589 c -2.825792,0.0128 -5.646692,0.33634 -8.417575,1.07384 1.378618,1.1807 2.785207,2.32936 4.124813,3.55482 l 9.274886,4.26848 c -1.007418,-2.03784 -3.014286,-4.27674 -3.014286,-4.27674 0.06072,-0.008 0.391322,-0.0363 0.923975,-0.0305 l 2.18953,-4.3 c -1.688914,-0.19354 -3.385869,-0.2976 -5.081343,-0.2899 z"
         inkscape:label="pathUL"
         sodipodi:nodetypes="cccccccc" /><path
         id="path31"
         style="display:inline;fill:url(#linearGradient33);fill-opacity:1"
         d="m 136.75169,157.23579 c 0.53265,-0.006 0.86326,0.0224 0.92397,0.0305 l 6.2606,0.008 c 1.33961,-1.22546 2.7462,-2.37412 4.12482,-3.55482 -4.43342,-1.17999 -8.99516,-1.30007 -13.49892,-0.78394 z"
         inkscape:label="pathUR"
         sodipodi:nodetypes="cccccc" /><g
         id="g7"
         transform="translate(-0.1154945)"
         style="fill:url(#linearGradient4);fill-opacity:1"><path
           style="opacity:1;fill:url(#linearGradient2);fill-opacity:1;stroke:#000000;stroke-width:1.4;stroke-linecap:round;stroke-linejoin:round;stroke-dasharray:none"
           d="m 112.37669,164.63997 c 0.5721,-3.17261 2.41579,-7.32723 5.11904,-10.02279"
           id="path6"
           sodipodi:nodetypes="cc" /><path
           style="opacity:1;fill:url(#linearGradient3);fill-opacity:1;stroke:#000000;stroke-width:1.4;stroke-linecap:round;stroke-linejoin:round;stroke-dasharray:none"
           d="m 112.37669,164.63997 c -0.5721,-3.17261 -2.41579,-7.32723 -5.11904,-10.02279"
           id="path7"
           sodipodi:nodetypes="cc" /></g><path
         id="path33"
         style="display:inline;fill:url(#linearGradient35);fill-opacity:1"
         d="m 137.67566,157.26629 c 0,0 -2.00686,2.2389 -3.01428,4.27674 -1.00741,2.03784 -2.1515,4.89675 -2.24689,7.96541 l 4.38371,-0.72399 c 1.03087,-4.50803 3.76008,-8.46177 7.13806,-11.50989 z"
         inkscape:label="pathMR"
         sodipodi:nodetypes="cscccc" /></g></g></svg>
